<svg id="my-svg" width="100%" xmlns="http://www.w3.org/2000/svg" xmlns:xlink="http://www.w3.org/1999/xlink" class="classDiagram" style="max-width: 1898.13px; background-color: white;" viewBox="0 0 1898.12890625 826" role="graphics-document document" aria-roledescription="class"><style>#my-svg{font-family:"trebuchet ms",verdana,arial,sans-serif;font-size:14px;fill:#000000;}@keyframes edge-animation-frame{from{stroke-dashoffset:0;}}@keyframes dash{to{stroke-dashoffset:0;}}#my-svg .edge-animation-slow{stroke-dasharray:9,5!important;stroke-dashoffset:900;animation:dash 50s linear infinite;stroke-linecap:round;}#my-svg .edge-animation-fast{stroke-dasharray:9,5!important;stroke-dashoffset:900;animation:dash 20s linear infinite;stroke-linecap:round;}#my-svg .error-icon{fill:#552222;}#my-svg .error-text{fill:#552222;stroke:#552222;}#my-svg .edge-thickness-normal{stroke-width:1px;}#my-svg .edge-thickness-thick{stroke-width:3.5px;}#my-svg .edge-pattern-solid{stroke-dasharray:0;}#my-svg .edge-thickness-invisible{stroke-width:0;fill:none;}#my-svg .edge-pattern-dashed{stroke-dasharray:3;}#my-svg .edge-pattern-dotted{stroke-dasharray:2;}#my-svg .marker{fill:#666;stroke:#666;}#my-svg .marker.cross{stroke:#666;}#my-svg svg{font-family:"trebuchet ms",verdana,arial,sans-serif;font-size:14px;}#my-svg p{margin:0;}#my-svg g.classGroup text{fill:#999;stroke:none;font-family:"trebuchet ms",verdana,arial,sans-serif;font-size:10px;}#my-svg g.classGroup text .title{font-weight:bolder;}#my-svg .cluster-label text{fill:#333;}#my-svg .cluster-label span{color:#333;}#my-svg .cluster-label span p{background-color:transparent;}#my-svg .cluster rect{fill:hsl(0, 0%, 98.9215686275%);stroke:#707070;stroke-width:1px;}#my-svg .cluster text{fill:#333;}#my-svg .cluster span{color:#333;}#my-svg .nodeLabel,#my-svg .edgeLabel{color:#111111;}#my-svg .noteLabel .nodeLabel,#my-svg .noteLabel .edgeLabel{color:#fff;}#my-svg .edgeLabel .label rect{fill:#eee;}#my-svg .label text{fill:#111111;}#my-svg .labelBkg{background:#eee;}#my-svg .edgeLabel .label span{background:#eee;}#my-svg .classTitle{font-weight:bolder;}#my-svg .node rect,#my-svg .node circle,#my-svg .node ellipse,#my-svg .node polygon,#my-svg .node path{fill:#eee;stroke:#999;stroke-width:1;}#my-svg .divider{stroke:#999;stroke-width:1;}#my-svg g.clickable{cursor:pointer;}#my-svg g.classGroup rect{fill:#eee;stroke:#999;}#my-svg g.classGroup line{stroke:#999;stroke-width:1;}#my-svg .classLabel .box{stroke:none;stroke-width:0;fill:#eee;opacity:0.5;}#my-svg .classLabel .label{fill:#999;font-size:10px;}#my-svg .relation{stroke:#666;stroke-width:1;fill:none;}#my-svg .dashed-line{stroke-dasharray:3;}#my-svg .dotted-line{stroke-dasharray:1 2;}#my-svg [id$="-compositionStart"],#my-svg .composition{fill:#666!important;stroke:#666!important;stroke-width:1;}#my-svg [id$="-compositionEnd"],#my-svg .composition{fill:#666!important;stroke:#666!important;stroke-width:1;}#my-svg [id$="-dependencyStart"],#my-svg .dependency{fill:#666!important;stroke:#666!important;stroke-width:1;}#my-svg [id$="-dependencyEnd"],#my-svg .dependency{fill:#666!important;stroke:#666!important;stroke-width:1;}#my-svg [id$="-extensionStart"],#my-svg .extension{fill:transparent!important;stroke:#666!important;stroke-width:1;}#my-svg [id$="-extensionEnd"],#my-svg .extension{fill:transparent!important;stroke:#666!important;stroke-width:1;}#my-svg [id$="-aggregationStart"],#my-svg .aggregation{fill:transparent!important;stroke:#666!important;stroke-width:1;}#my-svg [id$="-aggregationEnd"],#my-svg .aggregation{fill:transparent!important;stroke:#666!important;stroke-width:1;}#my-svg [id$="-lollipopStart"],#my-svg .lollipop{fill:#eee!important;stroke:#666!important;stroke-width:1;}#my-svg [id$="-lollipopEnd"],#my-svg .lollipop{fill:#eee!important;stroke:#666!important;stroke-width:1;}#my-svg .edgeTerminals{font-size:11px;line-height:initial;}#my-svg .classTitleText{text-anchor:middle;font-size:18px;fill:#000000;}#my-svg .edgeLabel[data-look="neo"]{background-color:white;text-align:center;}#my-svg .edgeLabel[data-look="neo"] p{background-color:white;}#my-svg .edgeLabel[data-look="neo"] rect{opacity:0.5;background-color:white;fill:white;}#my-svg .label-icon{display:inline-block;height:1em;overflow:visible;vertical-align:-0.125em;}#my-svg .node .label-icon path{fill:currentColor;stroke:revert;stroke-width:revert;}#my-svg .node .neo-node{stroke:#999;}#my-svg [data-look="neo"].node rect,#my-svg [data-look="neo"].cluster rect,#my-svg [data-look="neo"].node polygon{stroke:url(#my-svg-gradient);filter:drop-shadow( 1px 2px 2px rgba(185,185,185,1));}#my-svg [data-look="neo"].swimlane.cluster rect{filter:none;}#my-svg [data-look="neo"].node path{stroke:url(#my-svg-gradient);stroke-width:1px;}#my-svg [data-look="neo"].node .outer-path{filter:drop-shadow( 1px 2px 2px rgba(185,185,185,1));}#my-svg [data-look="neo"].node .neo-line path{stroke:#999;filter:none;}#my-svg [data-look="neo"].node circle{stroke:url(#my-svg-gradient);filter:drop-shadow( 1px 2px 2px rgba(185,185,185,1));}#my-svg [data-look="neo"].node circle .state-start{fill:#000000;}#my-svg [data-look="neo"].icon-shape .icon{fill:url(#my-svg-gradient);filter:drop-shadow( 1px 2px 2px rgba(185,185,185,1));}#my-svg [data-look="neo"].icon-shape .icon-neo path{stroke:url(#my-svg-gradient);filter:drop-shadow( 1px 2px 2px rgba(185,185,185,1));}#my-svg :root{--mermaid-font-family:"trebuchet ms",verdana,arial,sans-serif;}</style><g><defs><marker id="my-svg_class-aggregationStart" class="marker aggregation class" refX="18" refY="7" markerWidth="190" markerHeight="240" orient="auto"><path d="M 18,7 L9,13 L1,7 L9,1 Z"/></marker></defs><defs><marker id="my-svg_class-aggregationEnd" class="marker aggregation class" refX="1" refY="7" markerWidth="20" markerHeight="28" orient="auto"><path d="M 18,7 L9,13 L1,7 L9,1 Z"/></marker></defs><defs><marker id="my-svg_class-aggregationStart-margin" class="marker aggregation class" refX="15" refY="7" markerWidth="190" markerHeight="240" orient="auto" markerUnits="userSpaceOnUse"><path d="M 18,7 L9,13 L1,7 L9,1 Z" style="stroke-width: 2;"/></marker></defs><defs><marker id="my-svg_class-aggregationEnd-margin" class="marker aggregation class" refX="1" refY="7" markerWidth="20" markerHeight="28" orient="auto" markerUnits="userSpaceOnUse"><path d="M 18,7 L9,13 L1,7 L9,1 Z" style="stroke-width: 2;"/></marker></defs><defs><marker id="my-svg_class-extensionStart" class="marker extension class" refX="18" refY="7" markerWidth="20" markerHeight="28" orient="auto" markerUnits="userSpaceOnUse"><path d="M 1,7 L18,13 V 1 Z"/></marker></defs><defs><marker id="my-svg_class-extensionEnd" class="marker extension class" refX="1" refY="7" markerWidth="20" markerHeight="28" orient="auto"><path d="M 1,1 V 13 L18,7 Z"/></marker></defs><marker id="my-svg_class-extensionStart-margin" class="marker extension class" refX="18" refY="7" markerWidth="20" markerHeight="28" orient="auto" markerUnits="userSpaceOnUse" viewBox="0 0 20 14"><polygon points="10,7 18,13 18,1" style="stroke-width: 2; stroke-dasharray: 0;"/></marker><defs><marker id="my-svg_class-extensionEnd-margin" class="marker extension class" refX="9" refY="7" markerWidth="20" markerHeight="28" orient="auto" markerUnits="userSpaceOnUse" viewBox="0 0 20 14"><polygon points="10,1 10,13 18,7" style="stroke-width: 2; stroke-dasharray: 0;"/></marker></defs><defs><marker id="my-svg_class-compositionStart" class="marker composition class" refX="18" refY="7" markerWidth="190" markerHeight="240" orient="auto"><path d="M 18,7 L9,13 L1,7 L9,1 Z"/></marker></defs><defs><marker id="my-svg_class-compositionEnd" class="marker composition class" refX="1" refY="7" markerWidth="20" markerHeight="28" orient="auto"><path d="M 18,7 L9,13 L1,7 L9,1 Z"/></marker></defs><defs><marker id="my-svg_class-compositionStart-margin" class="marker composition class" refX="15" refY="7" markerWidth="190" markerHeight="240" orient="auto" markerUnits="userSpaceOnUse"><path viewBox="0 0 15 15" d="M 18,7 L9,13 L1,7 L9,1 Z" style="stroke-width: 0;"/></marker></defs><defs><marker id="my-svg_class-compositionEnd-margin" class="marker composition class" refX="3.5" refY="7" markerWidth="20" markerHeight="28" orient="auto" markerUnits="userSpaceOnUse"><path d="M 18,7 L9,13 L1,7 L9,1 Z" style="stroke-width: 0;"/></marker></defs><defs><marker id="my-svg_class-dependencyStart" class="marker dependency class" refX="6" refY="7" markerWidth="190" markerHeight="240" orient="auto"><path d="M 5,7 L9,13 L1,7 L9,1 Z"/></marker></defs><defs><marker id="my-svg_class-dependencyEnd" class="marker dependency class" refX="13" refY="7" markerWidth="20" markerHeight="28" orient="auto"><path d="M 18,7 L9,13 L14,7 L9,1 Z"/></marker></defs><defs><marker id="my-svg_class-dependencyStart-margin" class="marker dependency class" refX="4" refY="7" markerWidth="190" markerHeight="240" orient="auto" markerUnits="userSpaceOnUse"><path d="M 5,7 L9,13 L1,7 L9,1 Z" style="stroke-width: 0;"/></marker></defs><defs><marker id="my-svg_class-dependencyEnd-margin" class="marker dependency class" refX="16" refY="7" markerWidth="20" markerHeight="28" orient="auto" markerUnits="userSpaceOnUse"><path d="M 18,7 L9,13 L14,7 L9,1 Z" style="stroke-width: 0;"/></marker></defs><defs><marker id="my-svg_class-lollipopStart" class="marker lollipop class" refX="13" refY="7" markerWidth="190" markerHeight="240" orient="auto"><circle fill="transparent" cx="7" cy="7" r="6"/></marker></defs><defs><marker id="my-svg_class-lollipopEnd" class="marker lollipop class" refX="1" refY="7" markerWidth="190" markerHeight="240" orient="auto"><circle fill="transparent" cx="7" cy="7" r="6"/></marker></defs><defs><marker id="my-svg_class-lollipopStart-margin" class="marker lollipop class" refX="13" refY="7" markerWidth="190" markerHeight="240" orient="auto" markerUnits="userSpaceOnUse"><circle fill="transparent" cx="7" cy="7" r="6" stroke-width="2"/></marker></defs><defs><marker id="my-svg_class-lollipopEnd-margin" class="marker lollipop class" refX="1" refY="7" markerWidth="190" markerHeight="240" orient="auto" markerUnits="userSpaceOnUse"><circle fill="transparent" cx="7" cy="7" r="6" stroke-width="2"/></marker></defs><g class="root"><g class="clusters"/><g class="edgePaths"><path d="M367.008,484.5L367.008,504.667C367.008,524.833,367.008,565.167,367.008,591.25C367.008,617.333,367.008,629.167,367.008,635.083L367.008,641" id="my-svg-edgeNote0" class="edge-thickness-normal edge-pattern-dotted relation" style="fill: none;;;fill: none" data-edge="true" data-et="edge" data-id="edgeNote0" data-points="W3sieCI6MzY3LjAwNzgxMjUsInkiOjQ4NC41fSx7IngiOjM2Ny4wMDc4MTI1LCJ5Ijo2MDUuNX0seyJ4IjozNjcuMDA3ODEyNSwieSI6NjQxfV0=" data-look="classic"/><path d="M1256.566,41L1256.566,45.167C1256.566,49.333,1256.566,57.667,1256.566,66C1256.566,74.333,1256.566,82.667,1256.566,86.833L1256.566,91" id="my-svg-edgeNote1" class="edge-thickness-normal edge-pattern-dotted relation" style="fill: none;;;fill: none" data-edge="true" data-et="edge" data-id="edgeNote1" data-points="W3sieCI6MTI1Ni41NjY0MDYyNSwieSI6NDF9LHsieCI6MTI1Ni41NjY0MDYyNSwieSI6NjZ9LHsieCI6MTI1Ni41NjY0MDYyNSwieSI6OTF9XQ==" data-look="classic"/><path d="M1073.523,301.466L1065.357,306.305C1057.191,311.144,1040.859,320.822,1032.693,331.578C1024.527,342.333,1024.527,354.167,1024.527,360.083L1024.527,366" id="my-svg-id_NodeBase_ProtocolNode_1" class="edge-thickness-normal edge-pattern-solid relation" style=";;;" data-edge="true" data-et="edge" data-id="id_NodeBase_ProtocolNode_1" data-points="W3sieCI6MTA4OC4zNjMyODEyNSwieSI6MjkyLjY3MjU2OTk0NzEzOTgzfSx7IngiOjEwMjQuNTI3MzQzNzUsInkiOjMzMC41fSx7IngiOjEwMjQuNTI3MzQzNzUsInkiOjM2Nn1d" data-look="classic" marker-start="url(#my-svg_class-extensionStart)"/><path d="M1439.61,301.466L1447.776,306.305C1455.942,311.144,1472.274,320.822,1480.44,335.078C1488.605,349.333,1488.605,368.167,1488.605,377.583L1488.605,387" id="my-svg-id_NodeBase_DdsNode_2" class="edge-thickness-normal edge-pattern-solid relation" style=";;;" data-edge="true" data-et="edge" data-id="id_NodeBase_DdsNode_2" data-points="W3sieCI6MTQyNC43Njk1MzEyNSwieSI6MjkyLjY3MjU2OTk0NzEzOTgzfSx7IngiOjE0ODguNjA1NDY4NzUsInkiOjMzMC41fSx7IngiOjE0ODguNjA1NDY4NzUsInkiOjM4N31d" data-look="classic" marker-start="url(#my-svg_class-extensionStart)"/><path d="M760.052,576.308L748.172,581.173C736.291,586.038,712.529,595.769,685.296,606.551C658.062,617.333,627.356,629.167,612.004,635.083L596.651,641" id="my-svg-id_ProtocolNode_Dispatcher_3" class="edge-thickness-normal edge-pattern-solid relation" style=";;;" data-edge="true" data-et="edge" data-id="id_ProtocolNode_Dispatcher_3" data-points="W3sieCI6Nzc2LjAxNTYyNSwieSI6NTY5Ljc3MDI2Nzk5MDYyM30seyJ4Ijo2ODguNzY3NTc4MTI1LCJ5Ijo2MDUuNX0seyJ4Ijo1OTYuNjUwODcxMDMwNzQ2LCJ5Ijo2NDF9XQ==" data-look="classic" marker-start="url(#my-svg_class-compositionStart)"/><path d="M795.497,577.437L785.709,582.114C775.921,586.791,756.344,596.146,760.016,608.49C763.689,620.833,790.61,636.167,804.07,643.833L817.531,651.5" id="my-svg-id_ProtocolNode_HandlerLoop_4" class="edge-thickness-normal edge-pattern-solid relation" style=";;;" data-edge="true" data-et="edge" data-id="id_ProtocolNode_HandlerLoop_4" data-points="W3sieCI6ODExLjA2MTkxNzYxMzYzNjMsInkiOjU3MH0seyJ4Ijo3MzYuNzY3NTc4MTI1LCJ5Ijo2MDUuNX0seyJ4Ijo4MTcuNTMwNTg4NDU3NjYxMiwieSI6NjUxLjV9XQ==" data-look="classic" marker-start="url(#my-svg_class-compositionStart)"/><path d="M1307.339,550.506L1287.202,559.671C1267.064,568.837,1226.79,587.169,1192.306,604.001C1157.823,620.833,1129.13,636.167,1114.783,643.833L1100.437,651.5" id="my-svg-id_DdsNode_HandlerLoop_5" class="edge-thickness-normal edge-pattern-solid relation" style=";;;" data-edge="true" data-et="edge" data-id="id_DdsNode_HandlerLoop_5" data-points="W3sieCI6MTMyMy4wMzkwNjI1LCJ5Ijo1NDMuMzU5NjM2NjQ1NzYyfSx7IngiOjExODYuNTE1NjI1LCJ5Ijo2MDUuNX0seyJ4IjoxMTAwLjQzNjYxNzk0MzU0ODMsInkiOjY1MS41fV0=" data-look="classic" marker-start="url(#my-svg_class-compositionStart)"/><path d="M1219.655,570L1230.973,575.917C1242.292,581.833,1264.929,593.667,1296.262,610.279C1327.594,626.891,1367.623,648.281,1387.637,658.977L1407.651,669.672" id="my-svg-id_ProtocolNode_HandlerContext_6" class="edge-thickness-normal edge-pattern-dashed relation" style=";;;" data-edge="true" data-et="edge" data-id="id_ProtocolNode_HandlerContext_6" data-points="W3sieCI6MTIxOS42NTQ1MDI4NDA5MDkxLCJ5Ijo1NzB9LHsieCI6MTI4Ny41NjY0MDYyNSwieSI6NjA1LjV9LHsieCI6MTQxMi45NDIzNTEzMTA0ODQsInkiOjY3Mi41fV0=" data-look="classic" marker-end="url(#my-svg_class-dependencyEnd)"/><path d="M1544.134,549L1550.59,558.417C1557.045,567.833,1569.956,586.667,1571.169,606.359C1572.382,626.052,1561.897,646.604,1556.655,656.879L1551.412,667.155" id="my-svg-id_DdsNode_HandlerContext_7" class="edge-thickness-normal edge-pattern-dashed relation" style=";;;" data-edge="true" data-et="edge" data-id="id_DdsNode_HandlerContext_7" data-points="W3sieCI6MTU0NC4xMzQxOTAzNDA5MDksInkiOjU0OX0seyJ4IjoxNTgyLjg2NzE4NzUsInkiOjYwNS41fSx7IngiOjE1NDguNjg1NDUyMzY4OTUxNywieSI6NjcyLjV9XQ==" data-look="classic" marker-end="url(#my-svg_class-dependencyEnd)"/><path d="M1273.039,512.516L1359.554,528.013C1446.069,543.511,1619.099,574.505,1705.614,602.919C1792.129,631.333,1792.129,657.167,1792.129,670.083L1792.129,683" id="my-svg-id_ProtocolNode_ITransport_8" class="edge-thickness-normal edge-pattern-dashed relation" style=";;;" data-edge="true" data-et="edge" data-id="id_ProtocolNode_ITransport_8" data-points="W3sieCI6MTI3My4wMzkwNjI1LCJ5Ijo1MTIuNTE1NzUyNjk5NjYzMn0seyJ4IjoxNzkyLjEyODkwNjI1LCJ5Ijo2MDUuNX0seyJ4IjoxNzkyLjEyODkwNjI1LCJ5Ijo2ODl9XQ==" data-look="classic" marker-end="url(#my-svg_class-dependencyEnd)"/></g><g class="edgeLabels"><g class="edgeLabel"><g class="label" data-id="edgeNote0" transform="translate(0, 0)"><foreignObject width="0" height="0"><div xmlns="http://www.w3.org/1999/xhtml" class="labelBkg" style="display: table-cell; white-space: nowrap; line-height: 1.5; max-width: 200px; text-align: center;"><span class="edgeLabel"></span></div></foreignObject></g></g><g class="edgeLabel"><g class="label" data-id="edgeNote1" transform="translate(0, 0)"><foreignObject width="0" height="0"><div xmlns="http://www.w3.org/1999/xhtml" class="labelBkg" style="display: table-cell; white-space: nowrap; line-height: 1.5; max-width: 200px; text-align: center;"><span class="edgeLabel"></span></div></foreignObject></g></g><g class="edgeLabel" transform="translate(1024.52734375, 330.5)"><g class="label" data-id="id_NodeBase_ProtocolNode_1" transform="translate(-14, -10.5)"><foreignObject width="28" height="21"><div xmlns="http://www.w3.org/1999/xhtml" class="labelBkg" style="display: table-cell; white-space: nowrap; line-height: 1.5; max-width: 200px; text-align: center;"><span class="edgeLabel"><p>继承</p></span></div></foreignObject></g></g><g class="edgeLabel" transform="translate(1488.60546875, 330.5)"><g class="label" data-id="id_NodeBase_DdsNode_2" transform="translate(-14, -10.5)"><foreignObject width="28" height="21"><div xmlns="http://www.w3.org/1999/xhtml" class="labelBkg" style="display: table-cell; white-space: nowrap; line-height: 1.5; max-width: 200px; text-align: center;"><span class="edgeLabel"><p>继承</p></span></div></foreignObject></g></g><g class="edgeLabel" transform="translate(686.69614, 606.29829)"><g class="label" data-id="id_ProtocolNode_Dispatcher_3" transform="translate(-14, -10.5)"><foreignObject width="28" height="21"><div xmlns="http://www.w3.org/1999/xhtml" class="labelBkg" style="display: table-cell; white-space: nowrap; line-height: 1.5; max-width: 200px; text-align: center;"><span class="edgeLabel"><p>组合</p></span></div></foreignObject></g></g><g class="edgeLabel" transform="translate(741.37481, 608.12413)"><g class="label" data-id="id_ProtocolNode_HandlerLoop_4" transform="translate(-14, -10.5)"><foreignObject width="28" height="21"><div xmlns="http://www.w3.org/1999/xhtml" class="labelBkg" style="display: table-cell; white-space: nowrap; line-height: 1.5; max-width: 200px; text-align: center;"><span class="edgeLabel"><p>组合</p></span></div></foreignObject></g></g><g class="edgeLabel" transform="translate(1210.36218, 594.64594)"><g class="label" data-id="id_DdsNode_HandlerLoop_5" transform="translate(-14, -10.5)"><foreignObject width="28" height="21"><div xmlns="http://www.w3.org/1999/xhtml" class="labelBkg" style="display: table-cell; white-space: nowrap; line-height: 1.5; max-width: 200px; text-align: center;"><span class="edgeLabel"><p>组合</p></span></div></foreignObject></g></g><g class="edgeLabel" transform="translate(1316.46156, 620.94136)"><g class="label" data-id="id_ProtocolNode_HandlerContext_6" transform="translate(-28, -10.5)"><foreignObject width="56" height="21"><div xmlns="http://www.w3.org/1999/xhtml" class="labelBkg" style="display: table-cell; white-space: nowrap; line-height: 1.5; max-width: 200px; text-align: center;"><span class="edgeLabel"><p>构造传入</p></span></div></foreignObject></g></g><g class="edgeLabel" transform="translate(1582.8671875, 605.5)"><g class="label" data-id="id_DdsNode_HandlerContext_7" transform="translate(-28, -10.5)"><foreignObject width="56" height="21"><div xmlns="http://www.w3.org/1999/xhtml" class="labelBkg" style="display: table-cell; white-space: nowrap; line-height: 1.5; max-width: 200px; text-align: center;"><span class="edgeLabel"><p>构造传入</p></span></div></foreignObject></g></g><g class="edgeLabel" transform="translate(1792.12890625, 605.5)"><g class="label" data-id="id_ProtocolNode_ITransport_8" transform="translate(-98, -10.5)"><foreignObject width="196" height="21"><div xmlns="http://www.w3.org/1999/xhtml" class="labelBkg" style="display: table-cell; white-space: nowrap; line-height: 1.5; max-width: 200px; text-align: center;"><span class="edgeLabel"><p>按引用借用（不拥有、不启停）</p></span></div></foreignObject></g></g></g><g class="nodes"><g class="node default" id="my-svg-classId-ProtocolNode-0" data-look="classic" transform="translate(1024.52734375, 468)"><g class="basic label-container outer-path"><path d="M-248.51171875 -102 L248.51171875 -102 L248.51171875 102 L-248.51171875 102" stroke="none" stroke-width="0" fill="#eee" style=""/><path d="M-248.51171875 -102 C-71.24672380111764 -102, 106.01827114776472 -102, 248.51171875 -102 M-248.51171875 -102 C-100.30532338761535 -102, 47.90107197476931 -102, 248.51171875 -102 M248.51171875 -102 C248.51171875 -60.101025207047286, 248.51171875 -18.202050414094572, 248.51171875 102 M248.51171875 -102 C248.51171875 -53.655844950464676, 248.51171875 -5.311689900929352, 248.51171875 102 M248.51171875 102 C55.74969486450635 102, -137.0123290209873 102, -248.51171875 102 M248.51171875 102 C142.38314374722682 102, 36.25456874445365 102, -248.51171875 102 M-248.51171875 102 C-248.51171875 56.699621083381736, -248.51171875 11.399242166763472, -248.51171875 -102 M-248.51171875 102 C-248.51171875 31.152751809643235, -248.51171875 -39.69449638071353, -248.51171875 -102" stroke="#999" stroke-width="1.3" fill="none" stroke-dasharray="0 0" style=""/></g><g class="annotation-group text" transform="translate(0, -78)"/><g class="label-group text" transform="translate(-53.3359375, -78)"><g class="label" style="font-weight: bolder" transform="translate(0,-10.5)"><foreignObject width="106.671875" height="21"><div xmlns="http://www.w3.org/1999/xhtml" style="display: table-cell; white-space: nowrap; line-height: 1.5; max-width: 156px; text-align: center;"><span class="nodeLabel markdown-node-label" style=""><p>ProtocolNode</p></span></div></foreignObject></g></g><g class="members-group text" transform="translate(-236.51171875, -33)"/><g class="methods-group text" transform="translate(-236.51171875, -3)"><g class="label" style="" transform="translate(0,-10.5)"><foreignObject width="419.6875" height="21"><div xmlns="http://www.w3.org/1999/xhtml" style="display: table-cell; white-space: nowrap; line-height: 1.5; max-width: 571px; text-align: center;"><span class="nodeLabel markdown-node-label" style=""><p>+Request(Message, milliseconds) : Coro::Result&lt;Message&gt;</p></span></div></foreignObject></g><g class="label" style="" transform="translate(0,10.5)"><foreignObject width="271.03125" height="21"><div xmlns="http://www.w3.org/1999/xhtml" style="display: table-cell; white-space: nowrap; line-height: 1.5; max-width: 401px; text-align: center;"><span class="nodeLabel markdown-node-label" style=""><p>+Send(Message) : Coro::Result&lt;void&gt;</p></span></div></foreignObject></g><g class="label" style="" transform="translate(0,31.5)"><foreignObject width="171.859375" height="21"><div xmlns="http://www.w3.org/1999/xhtml" style="display: table-cell; white-space: nowrap; line-height: 1.5; max-width: 252px; text-align: center;"><span class="nodeLabel markdown-node-label" style=""><p>+Subscribe(Key) : Ticket</p></span></div></foreignObject></g><g class="label" style="" transform="translate(0,52.5)"><foreignObject width="244" height="21"><div xmlns="http://www.w3.org/1999/xhtml" style="display: table-cell; white-space: nowrap; line-height: 1.5; max-width: 334px; text-align: center;"><span class="nodeLabel markdown-node-label" style=""><p>-DecodeAndDispatch() / Dispatch()</p></span></div></foreignObject></g><g class="label" style="" transform="translate(0,73.5)"><foreignObject width="151.65625" height="21"><div xmlns="http://www.w3.org/1999/xhtml" style="display: table-cell; white-space: nowrap; line-height: 1.5; max-width: 229px; text-align: center;"><span class="nodeLabel markdown-node-label" style=""><p>-NextSession() : uint8</p></span></div></foreignObject></g></g><g class="divider" style=""><path d="M-248.51171875 -57 C-102.31848118425185 -56.99970586248749, 43.8747563814963 -56.99941172497498, 248.51171875 -56.999 M-248.51171875 -57 C-98.86259239053206 -56.999698909316805, 50.786533968935885 -56.99939781863362, 248.51171875 -56.999" stroke="#999" stroke-width="1.3" fill="none" stroke-dasharray="0 0" style=""/></g><g class="divider" style=""><path d="M-248.51171875 -33 C-106.97804312547018 -32.999715237421526, 34.55563249905964 -32.99943047484305, 248.51171875 -32.999 M-248.51171875 -33 C-101.93505881580182 -32.99970509105029, 44.64160111839635 -32.99941018210058, 248.51171875 -32.999" stroke="#999" stroke-width="1.3" fill="none" stroke-dasharray="0 0" style=""/></g></g><g class="node default" id="my-svg-classId-DdsNode-1" data-look="classic" transform="translate(1488.60546875, 468)"><g class="basic label-container outer-path"><path d="M-165.56640625 -81 L165.56640625 -81 L165.56640625 81 L-165.56640625 81" stroke="none" stroke-width="0" fill="#eee" style=""/><path d="M-165.56640625 -81 C-51.8582859528472 -81, 61.849834344305606 -81, 165.56640625 -81 M-165.56640625 -81 C-66.17010407925592 -81, 33.22619809148816 -81, 165.56640625 -81 M165.56640625 -81 C165.56640625 -24.60207502029653, 165.56640625 31.795849959406937, 165.56640625 81 M165.56640625 -81 C165.56640625 -26.145545577133404, 165.56640625 28.70890884573319, 165.56640625 81 M165.56640625 81 C51.848711451981615 81, -61.86898334603677 81, -165.56640625 81 M165.56640625 81 C63.47830742148132 81, -38.60979140703736 81, -165.56640625 81 M-165.56640625 81 C-165.56640625 30.42435791015371, -165.56640625 -20.15128417969258, -165.56640625 -81 M-165.56640625 81 C-165.56640625 29.018627640199014, -165.56640625 -22.96274471960197, -165.56640625 -81" stroke="#999" stroke-width="1.3" fill="none" stroke-dasharray="0 0" style=""/></g><g class="annotation-group text" transform="translate(0, -57)"/><g class="label-group text" transform="translate(-35.4140625, -57)"><g class="label" style="font-weight: bolder" transform="translate(0,-10.5)"><foreignObject width="70.828125" height="21"><div xmlns="http://www.w3.org/1999/xhtml" style="display: table-cell; white-space: nowrap; line-height: 1.5; max-width: 123px; text-align: center;"><span class="nodeLabel markdown-node-label" style=""><p>DdsNode</p></span></div></foreignObject></g></g><g class="members-group text" transform="translate(-153.56640625, -12)"/><g class="methods-group text" transform="translate(-153.56640625, 18)"><g class="label" style="" transform="translate(0,-10.5)"><foreignObject width="252.828125" height="21"><div xmlns="http://www.w3.org/1999/xhtml" style="display: table-cell; white-space: nowrap; line-height: 1.5; max-width: 344px; text-align: center;"><span class="nodeLabel markdown-node-label" style=""><p>+Request(Message, target, options)</p></span></div></foreignObject></g><g class="label" style="" transform="translate(0,10.5)"><foreignObject width="177.359375" height="21"><div xmlns="http://www.w3.org/1999/xhtml" style="display: table-cell; white-space: nowrap; line-height: 1.5; max-width: 258px; text-align: center;"><span class="nodeLabel markdown-node-label" style=""><p>+Publish(Message, topic)</p></span></div></foreignObject></g><g class="label" style="" transform="translate(0,31.5)"><foreignObject width="271.71875" height="21"><div xmlns="http://www.w3.org/1999/xhtml" style="display: table-cell; white-space: nowrap; line-height: 1.5; max-width: 366px; text-align: center;"><span class="nodeLabel markdown-node-label" style=""><p>-Dispatch(kReply) / NextCorrelationId()</p></span></div></foreignObject></g></g><g class="divider" style=""><path d="M-165.56640625 -36 C-65.37356696392315 -35.99969742400782, 34.819272322153694 -35.99939484801564, 165.56640625 -35.999 M-165.56640625 -36 C-44.38283216306283 -35.99963403332587, 76.80074192387434 -35.99926806665174, 165.56640625 -35.999" stroke="#999" stroke-width="1.3" fill="none" stroke-dasharray="0 0" style=""/></g><g class="divider" style=""><path d="M-165.56640625 -12 C-41.69440386115157 -11.999625914443653, 82.17759852769686 -11.999251828887306, 165.56640625 -11.999 M-165.56640625 -12 C-50.74887338083718 -11.999653258364816, 64.06865948832564 -11.999306516729634, 165.56640625 -11.999" stroke="#999" stroke-width="1.3" fill="none" stroke-dasharray="0 0" style=""/></g></g><g class="node default" id="my-svg-classId-NodeBase-2" data-look="classic" transform="translate(1256.56640625, 193)"><g class="basic label-container outer-path"><path d="M-168.203125 -102 L168.203125 -102 L168.203125 102 L-168.203125 102" stroke="none" stroke-width="0" fill="#eee" style=""/><path d="M-168.203125 -102 C-65.7918541764261 -102, 36.6194166471478 -102, 168.203125 -102 M-168.203125 -102 C-78.5573830670584 -102, 11.088358865883208 -102, 168.203125 -102 M168.203125 -102 C168.203125 -36.92212076769613, 168.203125 28.155758464607743, 168.203125 102 M168.203125 -102 C168.203125 -55.65887813055009, 168.203125 -9.317756261100186, 168.203125 102 M168.203125 102 C77.9750570068795 102, -12.253010986241009 102, -168.203125 102 M168.203125 102 C68.28237892566514 102, -31.638367148669715 102, -168.203125 102 M-168.203125 102 C-168.203125 51.52383402223991, -168.203125 1.0476680444798205, -168.203125 -102 M-168.203125 102 C-168.203125 55.200075878692886, -168.203125 8.400151757385771, -168.203125 -102" stroke="#999" stroke-width="1.3" fill="none" stroke-dasharray="0 0" style=""/></g><g class="annotation-group text" transform="translate(0, -78)"/><g class="label-group text" transform="translate(-39.40625, -78)"><g class="label" style="font-weight: bolder" transform="translate(0,-10.5)"><foreignObject width="78.8125" height="21"><div xmlns="http://www.w3.org/1999/xhtml" style="display: table-cell; white-space: nowrap; line-height: 1.5; max-width: 131px; text-align: center;"><span class="nodeLabel markdown-node-label" style=""><p>NodeBase</p></span></div></foreignObject></g></g><g class="members-group text" transform="translate(-156.203125, -33)"/><g class="methods-group text" transform="translate(-156.203125, -3)"><g class="label" style="" transform="translate(0,-10.5)"><foreignObject width="208.609375" height="21"><div xmlns="http://www.w3.org/1999/xhtml" style="display: table-cell; white-space: nowrap; line-height: 1.5; max-width: 330px; text-align: center;"><span class="nodeLabel markdown-node-label" style=""><p>+Start() : Coro::Result&lt;void&gt;</p></span></div></foreignObject></g><g class="label" style="" transform="translate(0,10.5)"><foreignObject width="273" height="21"><div xmlns="http://www.w3.org/1999/xhtml" style="display: table-cell; white-space: nowrap; line-height: 1.5; max-width: 403px; text-align: center;"><span class="nodeLabel markdown-node-label" style=""><p>+Close() : Coro::Result&lt;void&gt;  只发信号</p></span></div></foreignObject></g><g class="label" style="" transform="translate(0,31.5)"><foreignObject width="173.5" height="21"><div xmlns="http://www.w3.org/1999/xhtml" style="display: table-cell; white-space: nowrap; line-height: 1.5; max-width: 254px; text-align: center;"><span class="nodeLabel markdown-node-label" style=""><p>+WaitClosed() : void  join</p></span></div></foreignObject></g><g class="label" style="" transform="translate(0,52.5)"><foreignObject width="134.96875" height="21"><div xmlns="http://www.w3.org/1999/xhtml" style="display: table-cell; white-space: nowrap; line-height: 1.5; max-width: 210px; text-align: center;"><span class="nodeLabel markdown-node-label" style=""><p>+IsRunning() : bool</p></span></div></foreignObject></g><g class="label" style="font-style:italic;" transform="translate(0,73.5)"><foreignObject width="241.578125" height="21"><div xmlns="http://www.w3.org/1999/xhtml" style="display: table-cell; white-space: nowrap; line-height: 1.5; max-width: 331px; text-align: center;"><span class="nodeLabel markdown-node-label" style=""><p>#DoStart()* / DoClose()* / DoJoin()</p></span></div></foreignObject></g></g><g class="divider" style=""><path d="M-168.203125 -57 C-65.26751472688471 -56.99969401397782, 37.668095546230575 -56.999388027955646, 168.203125 -56.999 M-168.203125 -57 C-98.37983192141512 -56.99979244353195, -28.556538842830236 -56.99958488706391, 168.203125 -56.999" stroke="#999" stroke-width="1.3" fill="none" stroke-dasharray="0 0" style=""/></g><g class="divider" style=""><path d="M-168.203125 -33 C-91.36079196198486 -32.9997715787592, -14.518458923969717 -32.9995431575184, 168.203125 -32.999 M-168.203125 -33 C-57.938886368855705 -32.999672228923714, 52.32535226228859 -32.999344457847435, 168.203125 -32.999" stroke="#999" stroke-width="1.3" fill="none" stroke-dasharray="0 0" style=""/></g></g><g class="node default" id="my-svg-classId-HandlerLoop-3" data-look="classic" transform="translate(954.4765625, 729.5)"><g class="basic label-container outer-path"><path d="M-179.1796875 -78 L179.1796875 -78 L179.1796875 78 L-179.1796875 78" stroke="none" stroke-width="0" fill="#eee" style=""/><path d="M-179.1796875 -78 C-98.70212831589907 -78, -18.224569131798148 -78, 179.1796875 -78 M-179.1796875 -78 C-36.89943837476682 -78, 105.38081075046637 -78, 179.1796875 -78 M179.1796875 -78 C179.1796875 -32.27240762371797, 179.1796875 13.455184752564065, 179.1796875 78 M179.1796875 -78 C179.1796875 -43.22970340420981, 179.1796875 -8.459406808419615, 179.1796875 78 M179.1796875 78 C48.83843814644004 78, -81.50281120711992 78, -179.1796875 78 M179.1796875 78 C80.41654292027845 78, -18.34660165944311 78, -179.1796875 78 M-179.1796875 78 C-179.1796875 41.43965473635445, -179.1796875 4.879309472708897, -179.1796875 -78 M-179.1796875 78 C-179.1796875 34.816523886500306, -179.1796875 -8.366952226999388, -179.1796875 -78" stroke="#999" stroke-width="1.3" fill="none" stroke-dasharray="0 0" style=""/></g><g class="annotation-group text" transform="translate(0, -54)"/><g class="label-group text" transform="translate(-84.421875, -54)"><g class="label" style="font-weight: bolder" transform="translate(0,-10.5)"><foreignObject width="168.84375" height="21"><div xmlns="http://www.w3.org/1999/xhtml" style="display: table-cell; white-space: nowrap; line-height: 1.5; max-width: 260px; text-align: center;"><span class="nodeLabel markdown-node-label" style=""><p>HandlerLoop&lt;Event&gt;</p></span></div></foreignObject></g></g><g class="members-group text" transform="translate(-167.1796875, -9)"><g class="label" style="" transform="translate(0,-10.5)"><foreignObject width="211.25" height="21"><div xmlns="http://www.w3.org/1999/xhtml" style="display: table-cell; white-space: nowrap; line-height: 1.5; max-width: 333px; text-align: center;"><span class="nodeLabel markdown-node-label" style=""><p>-Coro::Awaitable&lt;Event&gt; 队列</p></span></div></foreignObject></g></g><g class="methods-group text" transform="translate(-167.1796875, 36)"><g class="label" style="" transform="translate(0,-10.5)"><foreignObject width="227.625" height="21"><div xmlns="http://www.w3.org/1999/xhtml" style="display: table-cell; white-space: nowrap; line-height: 1.5; max-width: 316px; text-align: center;"><span class="nodeLabel markdown-node-label" style=""><p>+Spawn(consume) / Enqueue(e)</p></span></div></foreignObject></g><g class="label" style="" transform="translate(0,10.5)"><foreignObject width="249.9375" height="21"><div xmlns="http://www.w3.org/1999/xhtml" style="display: table-cell; white-space: nowrap; line-height: 1.5; max-width: 341px; text-align: center;"><span class="nodeLabel markdown-node-label" style=""><p>+Join() / CancelAndClose() / Token()</p></span></div></foreignObject></g></g><g class="divider" style=""><path d="M-179.1796875 -33 C-73.59079440188745 -32.99970535473476, 31.9980986962251 -32.99941070946952, 179.1796875 -32.999 M-179.1796875 -33 C-43.83773260641419 -32.99962232896825, 91.50422228717161 -32.9992446579365, 179.1796875 -32.999" stroke="#999" stroke-width="1.3" fill="none" stroke-dasharray="0 0" style=""/></g><g class="divider" style=""><path d="M-179.1796875 12 C-60.20513508425557 12.00033199787899, 58.76941733148885 12.000663995757977, 179.1796875 12.001 M-179.1796875 12 C-68.81621620003223 12.000307968701252, 41.54725509993554 12.000615937402502, 179.1796875 12.001" stroke="#999" stroke-width="1.3" fill="none" stroke-dasharray="0 0" style=""/></g></g><g class="node default" id="my-svg-classId-Dispatcher-4" data-look="classic" transform="translate(367.0078125, 729.5)"><g class="basic label-container outer-path"><path d="M-254.23828125 -88.5 L254.23828125 -88.5 L254.23828125 88.5 L-254.23828125 88.5" stroke="none" stroke-width="0" fill="#eee" style=""/><path d="M-254.23828125 -88.5 C-108.70243070195397 -88.5, 36.833419846092056 -88.5, 254.23828125 -88.5 M-254.23828125 -88.5 C-139.1158819229641 -88.5, -23.993482595928214 -88.5, 254.23828125 -88.5 M254.23828125 -88.5 C254.23828125 -37.637669134728775, 254.23828125 13.22466173054245, 254.23828125 88.5 M254.23828125 -88.5 C254.23828125 -53.0715276657625, 254.23828125 -17.643055331525005, 254.23828125 88.5 M254.23828125 88.5 C66.9683226265445 88.5, -120.30163599691099 88.5, -254.23828125 88.5 M254.23828125 88.5 C117.92526354047385 88.5, -18.3877541690523 88.5, -254.23828125 88.5 M-254.23828125 88.5 C-254.23828125 36.16850141149731, -254.23828125 -16.16299717700538, -254.23828125 -88.5 M-254.23828125 88.5 C-254.23828125 46.275733598879874, -254.23828125 4.051467197759749, -254.23828125 -88.5" stroke="#999" stroke-width="1.3" fill="none" stroke-dasharray="0 0" style=""/></g><g class="annotation-group text" transform="translate(0, -64.5)"/><g class="label-group text" transform="translate(-86.3046875, -64.5)"><g class="label" style="font-weight: bolder" transform="translate(0,-10.5)"><foreignObject width="172.609375" height="21"><div xmlns="http://www.w3.org/1999/xhtml" style="display: table-cell; white-space: nowrap; line-height: 1.5; max-width: 263px; text-align: center;"><span class="nodeLabel markdown-node-label" style=""><p>Dispatcher&lt;T_Fields&gt;</p></span></div></foreignObject></g></g><g class="members-group text" transform="translate(-242.23828125, -19.5)"><g class="label" style="" transform="translate(0,-10.5)"><foreignObject width="398.171875" height="21"><div xmlns="http://www.w3.org/1999/xhtml" style="display: table-cell; white-space: nowrap; line-height: 1.5; max-width: 619px; text-align: center;"><span class="nodeLabel markdown-node-label" style=""><p>-unordered_map&lt;Mask, map&gt;Values, vector&lt;Entry&lt;&gt;&gt;</p></span></div></foreignObject></g></g><g class="methods-group text" transform="translate(-242.23828125, 25.5)"><g class="label" style="" transform="translate(0,-10.5)"><foreignObject width="171.859375" height="21"><div xmlns="http://www.w3.org/1999/xhtml" style="display: table-cell; white-space: nowrap; line-height: 1.5; max-width: 252px; text-align: center;"><span class="nodeLabel markdown-node-label" style=""><p>+Subscribe(Key) : Ticket</p></span></div></foreignObject></g><g class="label" style="" transform="translate(0,10.5)"><foreignObject width="199.234375" height="21"><div xmlns="http://www.w3.org/1999/xhtml" style="display: table-cell; white-space: nowrap; line-height: 1.5; max-width: 283px; text-align: center;"><span class="nodeLabel markdown-node-label" style=""><p>+Dispatch(const T&amp;) : size_t</p></span></div></foreignObject></g><g class="label" style="" transform="translate(0,31.5)"><foreignObject width="112.046875" height="21"><div xmlns="http://www.w3.org/1999/xhtml" style="display: table-cell; white-space: nowrap; line-height: 1.5; max-width: 183px; text-align: center;"><span class="nodeLabel markdown-node-label" style=""><p>+CloseAll(error)</p></span></div></foreignObject></g></g><g class="divider" style=""><path d="M-254.23828125 -43.5 C-134.3884481044135 -43.49976429624886, -14.538614958826969 -43.49952859249773, 254.23828125 -43.499 M-254.23828125 -43.5 C-72.60416086645952 -43.49964278762528, 109.02995951708095 -43.499285575250546, 254.23828125 -43.499" stroke="#999" stroke-width="1.3" fill="none" stroke-dasharray="0 0" style=""/></g><g class="divider" style=""><path d="M-254.23828125 1.5 C-55.025054890755825 1.5003917844814316, 144.18817146848835 1.5007835689628632, 254.23828125 1.501 M-254.23828125 1.5 C-136.21059158680822 1.5002321202162847, -18.18290192361647 1.5004642404325692, 254.23828125 1.501" stroke="#999" stroke-width="1.3" fill="none" stroke-dasharray="0 0" style=""/></g></g><g class="node default" id="my-svg-classId-HandlerContext-5" data-look="classic" transform="translate(1519.60546875, 729.5)"><g class="basic label-container outer-path"><path d="M-169.96875 -57 L169.96875 -57 L169.96875 57 L-169.96875 57" stroke="none" stroke-width="0" fill="#eee" style=""/><path d="M-169.96875 -57 C-66.95004936918217 -57, 36.068651261635665 -57, 169.96875 -57 M-169.96875 -57 C-77.7582370262595 -57, 14.452275947481013 -57, 169.96875 -57 M169.96875 -57 C169.96875 -20.298552016552954, 169.96875 16.402895966894093, 169.96875 57 M169.96875 -57 C169.96875 -19.51718994322033, 169.96875 17.96562011355934, 169.96875 57 M169.96875 57 C86.19052392456155 57, 2.4122978491230924 57, -169.96875 57 M169.96875 57 C92.88103804223461 57, 15.793326084469214 57, -169.96875 57 M-169.96875 57 C-169.96875 24.49334707280309, -169.96875 -8.01330585439382, -169.96875 -57 M-169.96875 57 C-169.96875 28.70550292324391, -169.96875 0.4110058464878179, -169.96875 -57" stroke="#999" stroke-width="1.3" fill="none" stroke-dasharray="0 0" style=""/></g><g class="annotation-group text" transform="translate(0, -33)"/><g class="label-group text" transform="translate(-62.0625, -33)"><g class="label" style="font-weight: bolder" transform="translate(0,-10.5)"><foreignObject width="124.125" height="21"><div xmlns="http://www.w3.org/1999/xhtml" style="display: table-cell; white-space: nowrap; line-height: 1.5; max-width: 176px; text-align: center;"><span class="nodeLabel markdown-node-label" style=""><p>HandlerContext</p></span></div></foreignObject></g></g><g class="members-group text" transform="translate(-157.96875, 12)"><g class="label" style="" transform="translate(0,-10.5)"><foreignObject width="253.875" height="21"><div xmlns="http://www.w3.org/1999/xhtml" style="display: table-cell; white-space: nowrap; line-height: 1.5; max-width: 346px; text-align: center;"><span class="nodeLabel markdown-node-label" style=""><p>+Send / RequestClose / cancellation</p></span></div></foreignObject></g></g><g class="methods-group text" transform="translate(-157.96875, 57)"/><g class="divider" style=""><path d="M-169.96875 -12 C-94.81232269545627 -11.999778911043046, -19.655895390912548 -11.999557822086093, 169.96875 -11.999 M-169.96875 -12 C-88.74884300596105 -11.999761074000386, -7.528936011922099 -11.999522148000771, 169.96875 -11.999" stroke="#999" stroke-width="1.3" fill="none" stroke-dasharray="0 0" style=""/></g><g class="divider" style=""><path d="M-169.96875 33 C-86.90036898511953 33.000244363687486, -3.831987970239055 33.00048872737497, 169.96875 33.001 M-169.96875 33 C-71.65165030362587 33.00028922110593, 26.665449392748258 33.000578442211854, 169.96875 33.001" stroke="#999" stroke-width="1.3" fill="none" stroke-dasharray="0 0" style=""/></g></g><g class="node default" id="my-svg-classId-ITransport-6" data-look="classic" transform="translate(1792.12890625, 729.5)"><g class="basic label-container outer-path"><path d="M-52.5546875 -40.5 L52.5546875 -40.5 L52.5546875 40.5 L-52.5546875 40.5" stroke="none" stroke-width="0" fill="#eee" style=""/><path d="M-52.5546875 -40.5 C-30.71411300829798 -40.5, -8.873538516595957 -40.5, 52.5546875 -40.5 M-52.5546875 -40.5 C-15.289008284055868 -40.5, 21.976670931888265 -40.5, 52.5546875 -40.5 M52.5546875 -40.5 C52.5546875 -17.036318445813524, 52.5546875 6.427363108372951, 52.5546875 40.5 M52.5546875 -40.5 C52.5546875 -14.381404436196092, 52.5546875 11.737191127607815, 52.5546875 40.5 M52.5546875 40.5 C20.6618585939065 40.5, -11.230970312186997 40.5, -52.5546875 40.5 M52.5546875 40.5 C20.379408955333318 40.5, -11.795869589333364 40.5, -52.5546875 40.5 M-52.5546875 40.5 C-52.5546875 15.871923654226975, -52.5546875 -8.756152691546049, -52.5546875 -40.5 M-52.5546875 40.5 C-52.5546875 22.9962068436782, -52.5546875 5.492413687356397, -52.5546875 -40.5" stroke="#999" stroke-width="1.3" fill="none" stroke-dasharray="0 0" style=""/></g><g class="annotation-group text" transform="translate(0, -16.5)"/><g class="label-group text" transform="translate(-40.5546875, -16.5)"><g class="label" style="font-weight: bolder" transform="translate(0,-10.5)"><foreignObject width="81.109375" height="21"><div xmlns="http://www.w3.org/1999/xhtml" style="display: table-cell; white-space: nowrap; line-height: 1.5; max-width: 130px; text-align: center;"><span class="nodeLabel markdown-node-label" style=""><p>ITransport</p></span></div></foreignObject></g></g><g class="members-group text" transform="translate(-40.5546875, 28.5)"/><g class="methods-group text" transform="translate(-40.5546875, 58.5)"/><g class="divider" style=""><path d="M-52.5546875 4.5 C-16.92604410454541 4.500338967322329, 18.702599290909177 4.500677934644659, 52.5546875 4.501 M-52.5546875 4.5 C-18.99167219406545 4.500319315144876, 14.571343111869098 4.500638630289752, 52.5546875 4.501" stroke="#999" stroke-width="1.3" fill="none" stroke-dasharray="0 0" style=""/></g><g class="divider" style=""><path d="M-52.5546875 22.5 C-29.031888127005324 22.50022379354242, -5.509088754010648 22.500447587084846, 52.5546875 22.501 M-52.5546875 22.5 C-26.187951763466458 22.50025085046635, 0.17878397306708393 22.500501700932702, 52.5546875 22.501" stroke="#999" stroke-width="1.3" fill="none" stroke-dasharray="0 0" style=""/></g></g><g class="node undefined" id="my-svg-note0" data-look="classic" transform="translate(367.0078125, 468)"><g class="basic label-container outer-path"><path d="M-359.0078125 -16.5 L359.0078125 -16.5 L359.0078125 16.5 L-359.0078125 16.5" stroke="none" stroke-width="0" fill="#666" style="fill:#666 !important;stroke:#999 !important"/><path d="M-359.0078125 -16.5 C-100.06228947470714 -16.5, 158.88323355058571 -16.5, 359.0078125 -16.5 M-359.0078125 -16.5 C-72.99582319569072 -16.5, 213.01616610861856 -16.5, 359.0078125 -16.5 M359.0078125 -16.5 C359.0078125 -8.202291339374023, 359.0078125 0.09541732125195423, 359.0078125 16.5 M359.0078125 -16.5 C359.0078125 -7.145779100001574, 359.0078125 2.2084417999968515, 359.0078125 16.5 M359.0078125 16.5 C117.65443751035289 16.5, -123.69893747929422 16.5, -359.0078125 16.5 M359.0078125 16.5 C188.13915088292902 16.5, 17.270489265858032 16.5, -359.0078125 16.5 M-359.0078125 16.5 C-359.0078125 4.205418940506743, -359.0078125 -8.089162118986515, -359.0078125 -16.5 M-359.0078125 16.5 C-359.0078125 5.790693558231668, -359.0078125 -4.918612883536664, -359.0078125 -16.5" stroke="#999" stroke-width="1.3" fill="none" stroke-dasharray="0 0" style="fill:#666 !important;stroke:#999 !important"/></g><g class="label noteLabel" style="text-align:left !important;white-space:nowrap !important" transform="translate(-353.0078125, -10.5)"><rect/><foreignObject width="706.015625" height="21"><div style="text-align: center; white-space: break-spaces; display: table; line-height: 1.5; max-width: 200px; width: 200px;" xmlns="http://www.w3.org/1999/xhtml"><span style="text-align:left !important;white-space:nowrap !important" class="nodeLabel markdown-node-label"><p>订阅时不参与匹配的字段填 kAny\n一条消息投给全部键匹配者，各得一份\n成本 O(在用 mask 种数 + 收件人数)</p></span></div></foreignObject></g></g><g class="node undefined" id="my-svg-note1" data-look="classic" transform="translate(1256.56640625, 24.5)"><g class="basic label-container outer-path"><path d="M-229.6015625 -16.5 L229.6015625 -16.5 L229.6015625 16.5 L-229.6015625 16.5" stroke="none" stroke-width="0" fill="#666" style="fill:#666 !important;stroke:#999 !important"/><path d="M-229.6015625 -16.5 C-131.67646639755907 -16.5, -33.751370295118164 -16.5, 229.6015625 -16.5 M-229.6015625 -16.5 C-100.95656115137936 -16.5, 27.688440197241277 -16.5, 229.6015625 -16.5 M229.6015625 -16.5 C229.6015625 -3.5462933024015655, 229.6015625 9.407413395196869, 229.6015625 16.5 M229.6015625 -16.5 C229.6015625 -3.4948648290092486, 229.6015625 9.510270341981503, 229.6015625 16.5 M229.6015625 16.5 C101.49134195974801 16.5, -26.618878580503974 16.5, -229.6015625 16.5 M229.6015625 16.5 C87.13991632005437 16.5, -55.32172985989126 16.5, -229.6015625 16.5 M-229.6015625 16.5 C-229.6015625 4.4625825390657194, -229.6015625 -7.574834921868561, -229.6015625 -16.5 M-229.6015625 16.5 C-229.6015625 6.418276823424144, -229.6015625 -3.6634463531517127, -229.6015625 -16.5" stroke="#999" stroke-width="1.3" fill="none" stroke-dasharray="0 0" style="fill:#666 !important;stroke:#999 !important"/></g><g class="label noteLabel" style="text-align:left !important;white-space:nowrap !important" transform="translate(-223.6015625, -10.5)"><rect/><foreignObject width="447.203125" height="21"><div style="text-align: center; white-space: break-spaces; display: table; line-height: 1.5; max-width: 200px; width: 200px;" xmlns="http://www.w3.org/1999/xhtml"><span style="text-align:left !important;white-space:nowrap !important" class="nodeLabel markdown-node-label"><p>Close 只发信号、任何 fiber 可调；\nWaitClosed 无时限，语义即 join</p></span></div></foreignObject></g></g></g></g></g><defs><filter id="my-svg-drop-shadow" height="130%" width="130%"><feDropShadow dx="4" dy="4" stdDeviation="0" flood-opacity="0.06" flood-color="#000000"/></filter></defs><defs><filter id="my-svg-drop-shadow-small" height="150%" width="150%"><feDropShadow dx="2" dy="2" stdDeviation="0" flood-opacity="0.06" flood-color="#000000"/></filter></defs><linearGradient id="my-svg-gradient" gradientUnits="objectBoundingBox" x1="0%" y1="0%" x2="100%" y2="0%"><stop offset="0%" stop-color="hsl(0, 0%, 83.3333333333%)" stop-opacity="1"/><stop offset="100%" stop-color="hsl(0, 0%, 88.9215686275%)" stop-opacity="1"/></linearGradient></svg>