<svg id="my-svg" width="100%" xmlns="http://www.w3.org/2000/svg" xmlns:xlink="http://www.w3.org/1999/xlink" class="classDiagram" style="max-width: 2078.01px; background-color: white;" viewBox="0 0 2078.01171875 826" role="graphics-document document" aria-roledescription="class"><style>#my-svg{font-family:"trebuchet ms",verdana,arial,sans-serif;font-size:14px;fill:#000000;}@keyframes edge-animation-frame{from{stroke-dashoffset:0;}}@keyframes dash{to{stroke-dashoffset:0;}}#my-svg .edge-animation-slow{stroke-dasharray:9,5!important;stroke-dashoffset:900;animation:dash 50s linear infinite;stroke-linecap:round;}#my-svg .edge-animation-fast{stroke-dasharray:9,5!important;stroke-dashoffset:900;animation:dash 20s linear infinite;stroke-linecap:round;}#my-svg .error-icon{fill:#552222;}#my-svg .error-text{fill:#552222;stroke:#552222;}#my-svg .edge-thickness-normal{stroke-width:1px;}#my-svg .edge-thickness-thick{stroke-width:3.5px;}#my-svg .edge-pattern-solid{stroke-dasharray:0;}#my-svg .edge-thickness-invisible{stroke-width:0;fill:none;}#my-svg .edge-pattern-dashed{stroke-dasharray:3;}#my-svg .edge-pattern-dotted{stroke-dasharray:2;}#my-svg .marker{fill:#666;stroke:#666;}#my-svg .marker.cross{stroke:#666;}#my-svg svg{font-family:"trebuchet ms",verdana,arial,sans-serif;font-size:14px;}#my-svg p{margin:0;}#my-svg g.classGroup text{fill:#999;stroke:none;font-family:"trebuchet ms",verdana,arial,sans-serif;font-size:10px;}#my-svg g.classGroup text .title{font-weight:bolder;}#my-svg .cluster-label text{fill:#333;}#my-svg .cluster-label span{color:#333;}#my-svg .cluster-label span p{background-color:transparent;}#my-svg .cluster rect{fill:hsl(0, 0%, 98.9215686275%);stroke:#707070;stroke-width:1px;}#my-svg .cluster text{fill:#333;}#my-svg .cluster span{color:#333;}#my-svg .nodeLabel,#my-svg .edgeLabel{color:#111111;}#my-svg .noteLabel .nodeLabel,#my-svg .noteLabel .edgeLabel{color:#fff;}#my-svg .edgeLabel .label rect{fill:#eee;}#my-svg .label text{fill:#111111;}#my-svg .labelBkg{background:#eee;}#my-svg .edgeLabel .label span{background:#eee;}#my-svg .classTitle{font-weight:bolder;}#my-svg .node rect,#my-svg .node circle,#my-svg .node ellipse,#my-svg .node polygon,#my-svg .node path{fill:#eee;stroke:#999;stroke-width:1;}#my-svg .divider{stroke:#999;stroke-width:1;}#my-svg g.clickable{cursor:pointer;}#my-svg g.classGroup rect{fill:#eee;stroke:#999;}#my-svg g.classGroup line{stroke:#999;stroke-width:1;}#my-svg .classLabel .box{stroke:none;stroke-width:0;fill:#eee;opacity:0.5;}#my-svg .classLabel .label{fill:#999;font-size:10px;}#my-svg .relation{stroke:#666;stroke-width:1;fill:none;}#my-svg .dashed-line{stroke-dasharray:3;}#my-svg .dotted-line{stroke-dasharray:1 2;}#my-svg [id$="-compositionStart"],#my-svg .composition{fill:#666!important;stroke:#666!important;stroke-width:1;}#my-svg [id$="-compositionEnd"],#my-svg .composition{fill:#666!important;stroke:#666!important;stroke-width:1;}#my-svg [id$="-dependencyStart"],#my-svg .dependency{fill:#666!important;stroke:#666!important;stroke-width:1;}#my-svg [id$="-dependencyEnd"],#my-svg .dependency{fill:#666!important;stroke:#666!important;stroke-width:1;}#my-svg [id$="-extensionStart"],#my-svg .extension{fill:transparent!important;stroke:#666!important;stroke-width:1;}#my-svg [id$="-extensionEnd"],#my-svg .extension{fill:transparent!important;stroke:#666!important;stroke-width:1;}#my-svg [id$="-aggregationStart"],#my-svg .aggregation{fill:transparent!important;stroke:#666!important;stroke-width:1;}#my-svg [id$="-aggregationEnd"],#my-svg .aggregation{fill:transparent!important;stroke:#666!important;stroke-width:1;}#my-svg [id$="-lollipopStart"],#my-svg .lollipop{fill:#eee!important;stroke:#666!important;stroke-width:1;}#my-svg [id$="-lollipopEnd"],#my-svg .lollipop{fill:#eee!important;stroke:#666!important;stroke-width:1;}#my-svg .edgeTerminals{font-size:11px;line-height:initial;}#my-svg .classTitleText{text-anchor:middle;font-size:18px;fill:#000000;}#my-svg .edgeLabel[data-look="neo"]{background-color:white;text-align:center;}#my-svg .edgeLabel[data-look="neo"] p{background-color:white;}#my-svg .edgeLabel[data-look="neo"] rect{opacity:0.5;background-color:white;fill:white;}#my-svg .label-icon{display:inline-block;height:1em;overflow:visible;vertical-align:-0.125em;}#my-svg .node .label-icon path{fill:currentColor;stroke:revert;stroke-width:revert;}#my-svg .node .neo-node{stroke:#999;}#my-svg [data-look="neo"].node rect,#my-svg [data-look="neo"].cluster rect,#my-svg [data-look="neo"].node polygon{stroke:url(#my-svg-gradient);filter:drop-shadow( 1px 2px 2px rgba(185,185,185,1));}#my-svg [data-look="neo"].swimlane.cluster rect{filter:none;}#my-svg [data-look="neo"].node path{stroke:url(#my-svg-gradient);stroke-width:1px;}#my-svg [data-look="neo"].node .outer-path{filter:drop-shadow( 1px 2px 2px rgba(185,185,185,1));}#my-svg [data-look="neo"].node .neo-line path{stroke:#999;filter:none;}#my-svg [data-look="neo"].node circle{stroke:url(#my-svg-gradient);filter:drop-shadow( 1px 2px 2px rgba(185,185,185,1));}#my-svg [data-look="neo"].node circle .state-start{fill:#000000;}#my-svg [data-look="neo"].icon-shape .icon{fill:url(#my-svg-gradient);filter:drop-shadow( 1px 2px 2px rgba(185,185,185,1));}#my-svg [data-look="neo"].icon-shape .icon-neo path{stroke:url(#my-svg-gradient);filter:drop-shadow( 1px 2px 2px rgba(185,185,185,1));}#my-svg :root{--mermaid-font-family:"trebuchet ms",verdana,arial,sans-serif;}</style><g><defs><marker id="my-svg_class-aggregationStart" class="marker aggregation class" refX="18" refY="7" markerWidth="190" markerHeight="240" orient="auto"><path d="M 18,7 L9,13 L1,7 L9,1 Z"/></marker></defs><defs><marker id="my-svg_class-aggregationEnd" class="marker aggregation class" refX="1" refY="7" markerWidth="20" markerHeight="28" orient="auto"><path d="M 18,7 L9,13 L1,7 L9,1 Z"/></marker></defs><defs><marker id="my-svg_class-aggregationStart-margin" class="marker aggregation class" refX="15" refY="7" markerWidth="190" markerHeight="240" orient="auto" markerUnits="userSpaceOnUse"><path d="M 18,7 L9,13 L1,7 L9,1 Z" style="stroke-width: 2;"/></marker></defs><defs><marker id="my-svg_class-aggregationEnd-margin" class="marker aggregation class" refX="1" refY="7" markerWidth="20" markerHeight="28" orient="auto" markerUnits="userSpaceOnUse"><path d="M 18,7 L9,13 L1,7 L9,1 Z" style="stroke-width: 2;"/></marker></defs><defs><marker id="my-svg_class-extensionStart" class="marker extension class" refX="18" refY="7" markerWidth="20" markerHeight="28" orient="auto" markerUnits="userSpaceOnUse"><path d="M 1,7 L18,13 V 1 Z"/></marker></defs><defs><marker id="my-svg_class-extensionEnd" class="marker extension class" refX="1" refY="7" markerWidth="20" markerHeight="28" orient="auto"><path d="M 1,1 V 13 L18,7 Z"/></marker></defs><marker id="my-svg_class-extensionStart-margin" class="marker extension class" refX="18" refY="7" markerWidth="20" markerHeight="28" orient="auto" markerUnits="userSpaceOnUse" viewBox="0 0 20 14"><polygon points="10,7 18,13 18,1" style="stroke-width: 2; stroke-dasharray: 0;"/></marker><defs><marker id="my-svg_class-extensionEnd-margin" class="marker extension class" refX="9" refY="7" markerWidth="20" markerHeight="28" orient="auto" markerUnits="userSpaceOnUse" viewBox="0 0 20 14"><polygon points="10,1 10,13 18,7" style="stroke-width: 2; stroke-dasharray: 0;"/></marker></defs><defs><marker id="my-svg_class-compositionStart" class="marker composition class" refX="18" refY="7" markerWidth="190" markerHeight="240" orient="auto"><path d="M 18,7 L9,13 L1,7 L9,1 Z"/></marker></defs><defs><marker id="my-svg_class-compositionEnd" class="marker composition class" refX="1" refY="7" markerWidth="20" markerHeight="28" orient="auto"><path d="M 18,7 L9,13 L1,7 L9,1 Z"/></marker></defs><defs><marker id="my-svg_class-compositionStart-margin" class="marker composition class" refX="15" refY="7" markerWidth="190" markerHeight="240" orient="auto" markerUnits="userSpaceOnUse"><path viewBox="0 0 15 15" d="M 18,7 L9,13 L1,7 L9,1 Z" style="stroke-width: 0;"/></marker></defs><defs><marker id="my-svg_class-compositionEnd-margin" class="marker composition class" refX="3.5" refY="7" markerWidth="20" markerHeight="28" orient="auto" markerUnits="userSpaceOnUse"><path d="M 18,7 L9,13 L1,7 L9,1 Z" style="stroke-width: 0;"/></marker></defs><defs><marker id="my-svg_class-dependencyStart" class="marker dependency class" refX="6" refY="7" markerWidth="190" markerHeight="240" orient="auto"><path d="M 5,7 L9,13 L1,7 L9,1 Z"/></marker></defs><defs><marker id="my-svg_class-dependencyEnd" class="marker dependency class" refX="13" refY="7" markerWidth="20" markerHeight="28" orient="auto"><path d="M 18,7 L9,13 L14,7 L9,1 Z"/></marker></defs><defs><marker id="my-svg_class-dependencyStart-margin" class="marker dependency class" refX="4" refY="7" markerWidth="190" markerHeight="240" orient="auto" markerUnits="userSpaceOnUse"><path d="M 5,7 L9,13 L1,7 L9,1 Z" style="stroke-width: 0;"/></marker></defs><defs><marker id="my-svg_class-dependencyEnd-margin" class="marker dependency class" refX="16" refY="7" markerWidth="20" markerHeight="28" orient="auto" markerUnits="userSpaceOnUse"><path d="M 18,7 L9,13 L14,7 L9,1 Z" style="stroke-width: 0;"/></marker></defs><defs><marker id="my-svg_class-lollipopStart" class="marker lollipop class" refX="13" refY="7" markerWidth="190" markerHeight="240" orient="auto"><circle fill="transparent" cx="7" cy="7" r="6"/></marker></defs><defs><marker id="my-svg_class-lollipopEnd" class="marker lollipop class" refX="1" refY="7" markerWidth="190" markerHeight="240" orient="auto"><circle fill="transparent" cx="7" cy="7" r="6"/></marker></defs><defs><marker id="my-svg_class-lollipopStart-margin" class="marker lollipop class" refX="13" refY="7" markerWidth="190" markerHeight="240" orient="auto" markerUnits="userSpaceOnUse"><circle fill="transparent" cx="7" cy="7" r="6" stroke-width="2"/></marker></defs><defs><marker id="my-svg_class-lollipopEnd-margin" class="marker lollipop class" refX="1" refY="7" markerWidth="190" markerHeight="240" orient="auto" markerUnits="userSpaceOnUse"><circle fill="transparent" cx="7" cy="7" r="6" stroke-width="2"/></marker></defs><g class="root"><g class="clusters"/><g class="edgePaths"><path d="M367.008,484.5L367.008,504.667C367.008,524.833,367.008,565.167,367.819,591.25C368.63,617.333,370.252,629.167,371.064,635.083L371.875,641" id="my-svg-edgeNote0" class="edge-thickness-normal edge-pattern-dotted relation" style="fill: none;;;fill: none" data-edge="true" data-et="edge" data-id="edgeNote0" data-points="W3sieCI6MzY3LjAwNzgxMjUsInkiOjQ4NC41fSx7IngiOjM2Ny4wMDc4MTI1LCJ5Ijo2MDUuNX0seyJ4IjozNzEuODc0NzQ3OTgzODcxLCJ5Ijo2NDF9XQ==" data-look="classic"/><path d="M1405.316,41L1405.316,45.167C1405.316,49.333,1405.316,57.667,1405.316,66C1405.316,74.333,1405.316,82.667,1405.316,86.833L1405.316,91" id="my-svg-edgeNote1" class="edge-thickness-normal edge-pattern-dotted relation" style="fill: none;;;fill: none" data-edge="true" data-et="edge" data-id="edgeNote1" data-points="W3sieCI6MTQwNS4zMTY0MDYyNSwieSI6NDF9LHsieCI6MTQwNS4zMTY0MDYyNSwieSI6NjZ9LHsieCI6MTQwNS4zMTY0MDYyNSwieSI6OTF9XQ==" data-look="classic"/><path d="M1220.889,259.595L1188.162,271.413C1155.435,283.23,1089.981,306.865,1057.254,324.599C1024.527,342.333,1024.527,354.167,1024.527,360.083L1024.527,366" id="my-svg-id_NodeBase_ProtocolNode_1" class="edge-thickness-normal edge-pattern-solid relation" style=";;;" data-edge="true" data-et="edge" data-id="id_NodeBase_ProtocolNode_1" data-points="W3sieCI6MTIzNy4xMTMyODEyNSwieSI6MjUzLjczNjg1Mzk4MzI5OTQ4fSx7IngiOjEwMjQuNTI3MzQzNzUsInkiOjMzMC41fSx7IngiOjEwMjQuNTI3MzQzNzUsInkiOjM2Nn1d" data-look="classic" marker-start="url(#my-svg_class-extensionStart)"/><path d="M1588.36,301.466L1596.526,306.305C1604.692,311.144,1621.024,320.822,1629.19,335.078C1637.355,349.333,1637.355,368.167,1637.355,377.583L1637.355,387" id="my-svg-id_NodeBase_DdsNode_2" class="edge-thickness-normal edge-pattern-solid relation" style=";;;" data-edge="true" data-et="edge" data-id="id_NodeBase_DdsNode_2" data-points="W3sieCI6MTU3My41MTk1MzEyNSwieSI6MjkyLjY3MjU2OTk0NzEzOTgzfSx7IngiOjE2MzcuMzU1NDY4NzUsInkiOjMzMC41fSx7IngiOjE2MzcuMzU1NDY4NzUsInkiOjM4N31d" data-look="classic" marker-start="url(#my-svg_class-extensionStart)"/><path d="M777.475,576.961L766.691,581.718C755.906,586.474,734.337,595.987,707.865,606.66C681.394,617.333,650.02,629.167,634.334,635.083L618.647,641" id="my-svg-id_ProtocolNode_Dispatcher_3" class="edge-thickness-normal edge-pattern-solid relation" style=";;;" data-edge="true" data-et="edge" data-id="id_ProtocolNode_Dispatcher_3" data-points="W3sieCI6NzkzLjI1ODI4MTI1LCJ5Ijo1NzB9LHsieCI6NzEyLjc2NzU3ODEyNSwieSI6NjA1LjV9LHsieCI6NjE4LjY0NjgzODc3MjY4MTUsInkiOjY0MX1d" data-look="classic" marker-start="url(#my-svg_class-compositionStart)"/><path d="M1488.067,557.899L1474.893,565.832C1461.718,573.766,1435.369,589.633,1422.194,603.483C1409.02,617.333,1409.02,629.167,1409.02,635.083L1409.02,641" id="my-svg-id_DdsNode_HandlerLoop_4" class="edge-thickness-normal edge-pattern-solid relation" style=";;;" data-edge="true" data-et="edge" data-id="id_DdsNode_HandlerLoop_4" data-points="W3sieCI6MTUwMi44NDQ4NDM3NSwieSI6NTQ5fSx7IngiOjE0MDkuMDE5NTMxMjUsInkiOjYwNS41fSx7IngiOjE0MDkuMDE5NTMxMjUsInkiOjY0MX1d" data-look="classic" marker-start="url(#my-svg_class-compositionStart)"/><path d="M1771.866,549L1787.504,558.417C1803.141,567.833,1834.416,586.667,1850.054,604.5C1865.691,622.333,1865.691,639.167,1865.691,647.583L1865.691,656" id="my-svg-id_DdsNode_DdsHandlerContext_5" class="edge-thickness-normal edge-pattern-dashed relation" style=";;;" data-edge="true" data-et="edge" data-id="id_DdsNode_DdsHandlerContext_5" data-points="W3sieCI6MTc3MS44NjYwOTM3NSwieSI6NTQ5fSx7IngiOjE4NjUuNjkxNDA2MjUsInkiOjYwNS41fSx7IngiOjE4NjUuNjkxNDA2MjUsInkiOjY2Mn1d" data-look="classic" marker-end="url(#my-svg_class-dependencyEnd)"/><path d="M1083.566,570L1086.99,575.917C1090.415,581.833,1097.264,593.667,1100.689,612.5C1104.113,631.333,1104.113,657.167,1104.113,670.083L1104.113,683" id="my-svg-id_ProtocolNode_ITransport_6" class="edge-thickness-normal edge-pattern-dashed relation" style=";;;" data-edge="true" data-et="edge" data-id="id_ProtocolNode_ITransport_6" data-points="W3sieCI6MTA4My41NjU2MzkyMDQ1NDU1LCJ5Ijo1NzB9LHsieCI6MTEwNC4xMTMyODEyNSwieSI6NjA1LjV9LHsieCI6MTEwNC4xMTMyODEyNSwieSI6Njg5fV0=" data-look="classic" marker-end="url(#my-svg_class-dependencyEnd)"/></g><g class="edgeLabels"><g class="edgeLabel"><g class="label" data-id="edgeNote0" transform="translate(0, 0)"><foreignObject width="0" height="0"><div xmlns="http://www.w3.org/1999/xhtml" class="labelBkg" style="display: table-cell; white-space: nowrap; line-height: 1.5; max-width: 200px; text-align: center;"><span class="edgeLabel"></span></div></foreignObject></g></g><g class="edgeLabel"><g class="label" data-id="edgeNote1" transform="translate(0, 0)"><foreignObject width="0" height="0"><div xmlns="http://www.w3.org/1999/xhtml" class="labelBkg" style="display: table-cell; white-space: nowrap; line-height: 1.5; max-width: 200px; text-align: center;"><span class="edgeLabel"></span></div></foreignObject></g></g><g class="edgeLabel" transform="translate(1024.52734375, 330.5)"><g class="label" data-id="id_NodeBase_ProtocolNode_1" transform="translate(-14, -10.5)"><foreignObject width="28" height="21"><div xmlns="http://www.w3.org/1999/xhtml" class="labelBkg" style="display: table-cell; white-space: nowrap; line-height: 1.5; max-width: 200px; text-align: center;"><span class="edgeLabel"><p>继承</p></span></div></foreignObject></g></g><g class="edgeLabel" transform="translate(1637.35546875, 330.5)"><g class="label" data-id="id_NodeBase_DdsNode_2" transform="translate(-14, -10.5)"><foreignObject width="28" height="21"><div xmlns="http://www.w3.org/1999/xhtml" class="labelBkg" style="display: table-cell; white-space: nowrap; line-height: 1.5; max-width: 200px; text-align: center;"><span class="edgeLabel"><p>继承</p></span></div></foreignObject></g></g><g class="edgeLabel" transform="translate(706.86289, 607.7271)"><g class="label" data-id="id_ProtocolNode_Dispatcher_3" transform="translate(-14, -10.5)"><foreignObject width="28" height="21"><div xmlns="http://www.w3.org/1999/xhtml" class="labelBkg" style="display: table-cell; white-space: nowrap; line-height: 1.5; max-width: 200px; text-align: center;"><span class="edgeLabel"><p>组合</p></span></div></foreignObject></g></g><g class="edgeLabel" transform="translate(1409.01953125, 605.5)"><g class="label" data-id="id_DdsNode_HandlerLoop_4" transform="translate(-56, -10.5)"><foreignObject width="112" height="21"><div xmlns="http://www.w3.org/1999/xhtml" class="labelBkg" style="display: table-cell; white-space: nowrap; line-height: 1.5; max-width: 200px; text-align: center;"><span class="edgeLabel"><p>组合（过渡遗留）</p></span></div></foreignObject></g></g><g class="edgeLabel" transform="translate(1865.69140625, 605.5)"><g class="label" data-id="id_DdsNode_DdsHandlerContext_5" transform="translate(-70, -10.5)"><foreignObject width="140" height="21"><div xmlns="http://www.w3.org/1999/xhtml" class="labelBkg" style="display: table-cell; white-space: nowrap; line-height: 1.5; max-width: 200px; text-align: center;"><span class="edgeLabel"><p>构造传入（过渡遗留）</p></span></div></foreignObject></g></g><g class="edgeLabel" transform="translate(1104.11328125, 605.5)"><g class="label" data-id="id_ProtocolNode_ITransport_6" transform="translate(-98, -10.5)"><foreignObject width="196" height="21"><div xmlns="http://www.w3.org/1999/xhtml" class="labelBkg" style="display: table-cell; white-space: nowrap; line-height: 1.5; max-width: 200px; text-align: center;"><span class="edgeLabel"><p>按引用借用（不拥有、不启停）</p></span></div></foreignObject></g></g></g><g class="nodes"><g class="node default" id="my-svg-classId-ProtocolNode-0" data-look="classic" transform="translate(1024.52734375, 468)"><g class="basic label-container outer-path"><path d="M-248.51171875 -102 L248.51171875 -102 L248.51171875 102 L-248.51171875 102" stroke="none" stroke-width="0" fill="#eee" style=""/><path d="M-248.51171875 -102 C-142.6160482688607 -102, -36.72037778772142 -102, 248.51171875 -102 M-248.51171875 -102 C-75.3043530728988 -102, 97.90301260420239 -102, 248.51171875 -102 M248.51171875 -102 C248.51171875 -27.171170980804277, 248.51171875 47.657658038391446, 248.51171875 102 M248.51171875 -102 C248.51171875 -37.43016732664506, 248.51171875 27.139665346709876, 248.51171875 102 M248.51171875 102 C49.988632517446945 102, -148.5344537151061 102, -248.51171875 102 M248.51171875 102 C82.80427060976831 102, -82.90317753046338 102, -248.51171875 102 M-248.51171875 102 C-248.51171875 60.826800468188175, -248.51171875 19.65360093637635, -248.51171875 -102 M-248.51171875 102 C-248.51171875 27.30237171757129, -248.51171875 -47.39525656485742, -248.51171875 -102" stroke="#999" stroke-width="1.3" fill="none" stroke-dasharray="0 0" style=""/></g><g class="annotation-group text" transform="translate(0, -78)"/><g class="label-group text" transform="translate(-53.3359375, -78)"><g class="label" style="font-weight: bolder" transform="translate(0,-10.5)"><foreignObject width="106.671875" height="21"><div xmlns="http://www.w3.org/1999/xhtml" style="display: table-cell; white-space: nowrap; line-height: 1.5; max-width: 156px; text-align: center;"><span class="nodeLabel markdown-node-label" style=""><p>ProtocolNode</p></span></div></foreignObject></g></g><g class="members-group text" transform="translate(-236.51171875, -33)"/><g class="methods-group text" transform="translate(-236.51171875, -3)"><g class="label" style="" transform="translate(0,-10.5)"><foreignObject width="419.6875" height="21"><div xmlns="http://www.w3.org/1999/xhtml" style="display: table-cell; white-space: nowrap; line-height: 1.5; max-width: 571px; text-align: center;"><span class="nodeLabel markdown-node-label" style=""><p>+Request(Message, milliseconds) : Coro::Result&lt;Message&gt;</p></span></div></foreignObject></g><g class="label" style="" transform="translate(0,10.5)"><foreignObject width="271.03125" height="21"><div xmlns="http://www.w3.org/1999/xhtml" style="display: table-cell; white-space: nowrap; line-height: 1.5; max-width: 401px; text-align: center;"><span class="nodeLabel markdown-node-label" style=""><p>+Send(Message) : Coro::Result&lt;void&gt;</p></span></div></foreignObject></g><g class="label" style="" transform="translate(0,31.5)"><foreignObject width="171.859375" height="21"><div xmlns="http://www.w3.org/1999/xhtml" style="display: table-cell; white-space: nowrap; line-height: 1.5; max-width: 252px; text-align: center;"><span class="nodeLabel markdown-node-label" style=""><p>+Subscribe(Key) : Ticket</p></span></div></foreignObject></g><g class="label" style="" transform="translate(0,52.5)"><foreignObject width="244" height="21"><div xmlns="http://www.w3.org/1999/xhtml" style="display: table-cell; white-space: nowrap; line-height: 1.5; max-width: 334px; text-align: center;"><span class="nodeLabel markdown-node-label" style=""><p>-DecodeAndDispatch() / Dispatch()</p></span></div></foreignObject></g><g class="label" style="" transform="translate(0,73.5)"><foreignObject width="151.65625" height="21"><div xmlns="http://www.w3.org/1999/xhtml" style="display: table-cell; white-space: nowrap; line-height: 1.5; max-width: 229px; text-align: center;"><span class="nodeLabel markdown-node-label" style=""><p>-NextSession() : uint8</p></span></div></foreignObject></g></g><g class="divider" style=""><path d="M-248.51171875 -57 C-139.114641273416 -56.99977989553566, -29.717563796831996 -56.99955979107131, 248.51171875 -56.999 M-248.51171875 -57 C-75.0692433816073 -56.999651037632674, 98.37323198678541 -56.99930207526534, 248.51171875 -56.999" stroke="#999" stroke-width="1.3" fill="none" stroke-dasharray="0 0" style=""/></g><g class="divider" style=""><path d="M-248.51171875 -33 C-102.99986101998854 -32.99970723340842, 42.51199671002291 -32.99941446681685, 248.51171875 -32.999 M-248.51171875 -33 C-75.42408162856321 -32.999651751559256, 97.66355549287357 -32.99930350311852, 248.51171875 -32.999" stroke="#999" stroke-width="1.3" fill="none" stroke-dasharray="0 0" style=""/></g></g><g class="node default" id="my-svg-classId-DdsNode-1" data-look="classic" transform="translate(1637.35546875, 468)"><g class="basic label-container outer-path"><path d="M-165.56640625 -81 L165.56640625 -81 L165.56640625 81 L-165.56640625 81" stroke="none" stroke-width="0" fill="#eee" style=""/><path d="M-165.56640625 -81 C-65.59326946045707 -81, 34.37986732908587 -81, 165.56640625 -81 M-165.56640625 -81 C-93.56455490228161 -81, -21.562703554563228 -81, 165.56640625 -81 M165.56640625 -81 C165.56640625 -27.888503297770207, 165.56640625 25.222993404459586, 165.56640625 81 M165.56640625 -81 C165.56640625 -26.76321298181154, 165.56640625 27.473574036376917, 165.56640625 81 M165.56640625 81 C81.5016331452432 81, -2.5631399595135917 81, -165.56640625 81 M165.56640625 81 C52.63965369426141 81, -60.287098861477176 81, -165.56640625 81 M-165.56640625 81 C-165.56640625 18.423725740607928, -165.56640625 -44.152548518784144, -165.56640625 -81 M-165.56640625 81 C-165.56640625 42.989204484686155, -165.56640625 4.97840896937231, -165.56640625 -81" stroke="#999" stroke-width="1.3" fill="none" stroke-dasharray="0 0" style=""/></g><g class="annotation-group text" transform="translate(0, -57)"/><g class="label-group text" transform="translate(-35.4140625, -57)"><g class="label" style="font-weight: bolder" transform="translate(0,-10.5)"><foreignObject width="70.828125" height="21"><div xmlns="http://www.w3.org/1999/xhtml" style="display: table-cell; white-space: nowrap; line-height: 1.5; max-width: 123px; text-align: center;"><span class="nodeLabel markdown-node-label" style=""><p>DdsNode</p></span></div></foreignObject></g></g><g class="members-group text" transform="translate(-153.56640625, -12)"/><g class="methods-group text" transform="translate(-153.56640625, 18)"><g class="label" style="" transform="translate(0,-10.5)"><foreignObject width="252.828125" height="21"><div xmlns="http://www.w3.org/1999/xhtml" style="display: table-cell; white-space: nowrap; line-height: 1.5; max-width: 344px; text-align: center;"><span class="nodeLabel markdown-node-label" style=""><p>+Request(Message, target, options)</p></span></div></foreignObject></g><g class="label" style="" transform="translate(0,10.5)"><foreignObject width="177.359375" height="21"><div xmlns="http://www.w3.org/1999/xhtml" style="display: table-cell; white-space: nowrap; line-height: 1.5; max-width: 258px; text-align: center;"><span class="nodeLabel markdown-node-label" style=""><p>+Publish(Message, topic)</p></span></div></foreignObject></g><g class="label" style="" transform="translate(0,31.5)"><foreignObject width="271.71875" height="21"><div xmlns="http://www.w3.org/1999/xhtml" style="display: table-cell; white-space: nowrap; line-height: 1.5; max-width: 366px; text-align: center;"><span class="nodeLabel markdown-node-label" style=""><p>-Dispatch(kReply) / NextCorrelationId()</p></span></div></foreignObject></g></g><g class="divider" style=""><path d="M-165.56640625 -36 C-34.23223521783112 -35.999603379169706, 97.10193581433776 -35.99920675833941, 165.56640625 -35.999 M-165.56640625 -36 C-79.88987778030408 -35.99974126234177, 5.786650689391848 -35.999482524683536, 165.56640625 -35.999" stroke="#999" stroke-width="1.3" fill="none" stroke-dasharray="0 0" style=""/></g><g class="divider" style=""><path d="M-165.56640625 -12 C-67.73380440959983 -11.999704551774553, 30.098797430800346 -11.999409103549107, 165.56640625 -11.999 M-165.56640625 -12 C-65.56866130050086 -11.999698013180288, 34.42908364899827 -11.999396026360575, 165.56640625 -11.999" stroke="#999" stroke-width="1.3" fill="none" stroke-dasharray="0 0" style=""/></g></g><g class="node default" id="my-svg-classId-NodeBase-2" data-look="classic" transform="translate(1405.31640625, 193)"><g class="basic label-container outer-path"><path d="M-168.203125 -102 L168.203125 -102 L168.203125 102 L-168.203125 102" stroke="none" stroke-width="0" fill="#eee" style=""/><path d="M-168.203125 -102 C-34.58396465184683 -102, 99.03519569630635 -102, 168.203125 -102 M-168.203125 -102 C-40.68813266484352 -102, 86.82685967031296 -102, 168.203125 -102 M168.203125 -102 C168.203125 -20.76481578309439, 168.203125 60.47036843381122, 168.203125 102 M168.203125 -102 C168.203125 -21.00061718698943, 168.203125 59.99876562602114, 168.203125 102 M168.203125 102 C89.77471337178822 102, 11.346301743576447 102, -168.203125 102 M168.203125 102 C53.940229214812746 102, -60.32266657037451 102, -168.203125 102 M-168.203125 102 C-168.203125 42.665018742750114, -168.203125 -16.669962514499773, -168.203125 -102 M-168.203125 102 C-168.203125 45.31812439833312, -168.203125 -11.363751203333763, -168.203125 -102" stroke="#999" stroke-width="1.3" fill="none" stroke-dasharray="0 0" style=""/></g><g class="annotation-group text" transform="translate(0, -78)"/><g class="label-group text" transform="translate(-39.40625, -78)"><g class="label" style="font-weight: bolder" transform="translate(0,-10.5)"><foreignObject width="78.8125" height="21"><div xmlns="http://www.w3.org/1999/xhtml" style="display: table-cell; white-space: nowrap; line-height: 1.5; max-width: 131px; text-align: center;"><span class="nodeLabel markdown-node-label" style=""><p>NodeBase</p></span></div></foreignObject></g></g><g class="members-group text" transform="translate(-156.203125, -33)"/><g class="methods-group text" transform="translate(-156.203125, -3)"><g class="label" style="" transform="translate(0,-10.5)"><foreignObject width="208.609375" height="21"><div xmlns="http://www.w3.org/1999/xhtml" style="display: table-cell; white-space: nowrap; line-height: 1.5; max-width: 330px; text-align: center;"><span class="nodeLabel markdown-node-label" style=""><p>+Start() : Coro::Result&lt;void&gt;</p></span></div></foreignObject></g><g class="label" style="" transform="translate(0,10.5)"><foreignObject width="273" height="21"><div xmlns="http://www.w3.org/1999/xhtml" style="display: table-cell; white-space: nowrap; line-height: 1.5; max-width: 403px; text-align: center;"><span class="nodeLabel markdown-node-label" style=""><p>+Close() : Coro::Result&lt;void&gt;  只发信号</p></span></div></foreignObject></g><g class="label" style="" transform="translate(0,31.5)"><foreignObject width="173.5" height="21"><div xmlns="http://www.w3.org/1999/xhtml" style="display: table-cell; white-space: nowrap; line-height: 1.5; max-width: 254px; text-align: center;"><span class="nodeLabel markdown-node-label" style=""><p>+WaitClosed() : void  join</p></span></div></foreignObject></g><g class="label" style="" transform="translate(0,52.5)"><foreignObject width="134.96875" height="21"><div xmlns="http://www.w3.org/1999/xhtml" style="display: table-cell; white-space: nowrap; line-height: 1.5; max-width: 210px; text-align: center;"><span class="nodeLabel markdown-node-label" style=""><p>+IsRunning() : bool</p></span></div></foreignObject></g><g class="label" style="font-style:italic;" transform="translate(0,73.5)"><foreignObject width="241.578125" height="21"><div xmlns="http://www.w3.org/1999/xhtml" style="display: table-cell; white-space: nowrap; line-height: 1.5; max-width: 331px; text-align: center;"><span class="nodeLabel markdown-node-label" style=""><p>#DoStart()* / DoClose()* / DoJoin()</p></span></div></foreignObject></g></g><g class="divider" style=""><path d="M-168.203125 -57 C-94.76021991791087 -56.999781683886425, -21.317314835821747 -56.99956336777285, 168.203125 -56.999 M-168.203125 -57 C-98.76926023912915 -56.999793601145164, -29.335395478258306 -56.99958720229032, 168.203125 -56.999" stroke="#999" stroke-width="1.3" fill="none" stroke-dasharray="0 0" style=""/></g><g class="divider" style=""><path d="M-168.203125 -33 C-76.71959446942486 -32.99972805638858, 14.763936061150275 -32.99945611277715, 168.203125 -32.999 M-168.203125 -33 C-90.91091655871433 -32.999770241461206, -13.618708117428667 -32.99954048292241, 168.203125 -32.999" stroke="#999" stroke-width="1.3" fill="none" stroke-dasharray="0 0" style=""/></g></g><g class="node default" id="my-svg-classId-HandlerLoop-3" data-look="classic" transform="translate(1409.01953125, 729.5)"><g class="basic label-container outer-path"><path d="M-202.3515625 -88.5 L202.3515625 -88.5 L202.3515625 88.5 L-202.3515625 88.5" stroke="none" stroke-width="0" fill="#eee" style=""/><path d="M-202.3515625 -88.5 C-98.92937481926647 -88.5, 4.492812861467058 -88.5, 202.3515625 -88.5 M-202.3515625 -88.5 C-117.77084428733468 -88.5, -33.190126074669365 -88.5, 202.3515625 -88.5 M202.3515625 -88.5 C202.3515625 -24.860406795550055, 202.3515625 38.77918640889989, 202.3515625 88.5 M202.3515625 -88.5 C202.3515625 -23.049072140066812, 202.3515625 42.401855719866376, 202.3515625 88.5 M202.3515625 88.5 C100.12800910187137 88.5, -2.095544296257259 88.5, -202.3515625 88.5 M202.3515625 88.5 C116.95107261901954 88.5, 31.550582738039083 88.5, -202.3515625 88.5 M-202.3515625 88.5 C-202.3515625 20.685457548713202, -202.3515625 -47.129084902573595, -202.3515625 -88.5 M-202.3515625 88.5 C-202.3515625 22.923071676252135, -202.3515625 -42.65385664749573, -202.3515625 -88.5" stroke="#999" stroke-width="1.3" fill="none" stroke-dasharray="0 0" style=""/></g><g class="annotation-group text" transform="translate(-130.765625, -64.5)"><g class="label" style="" transform="translate(0,-10.5)"><foreignObject width="261.53125" height="21"><div xmlns="http://www.w3.org/1999/xhtml" style="display: table-cell; white-space: nowrap; line-height: 1.5; max-width: 349px; text-align: center;"><span class="nodeLabel markdown-node-label" style=""><p>«仅 DdsNode 用 · ADR-0009 过渡遗留»</p></span></div></foreignObject></g></g><g class="label-group text" transform="translate(-84.421875, -43.5)"><g class="label" style="font-weight: bolder" transform="translate(0,-10.5)"><foreignObject width="168.84375" height="21"><div xmlns="http://www.w3.org/1999/xhtml" style="display: table-cell; white-space: nowrap; line-height: 1.5; max-width: 260px; text-align: center;"><span class="nodeLabel markdown-node-label" style=""><p>HandlerLoop&lt;Event&gt;</p></span></div></foreignObject></g></g><g class="members-group text" transform="translate(-190.3515625, 1.5)"><g class="label" style="" transform="translate(0,-10.5)"><foreignObject width="211.25" height="21"><div xmlns="http://www.w3.org/1999/xhtml" style="display: table-cell; white-space: nowrap; line-height: 1.5; max-width: 333px; text-align: center;"><span class="nodeLabel markdown-node-label" style=""><p>-Coro::Awaitable&lt;Event&gt; 队列</p></span></div></foreignObject></g></g><g class="methods-group text" transform="translate(-190.3515625, 46.5)"><g class="label" style="" transform="translate(0,-10.5)"><foreignObject width="227.625" height="21"><div xmlns="http://www.w3.org/1999/xhtml" style="display: table-cell; white-space: nowrap; line-height: 1.5; max-width: 316px; text-align: center;"><span class="nodeLabel markdown-node-label" style=""><p>+Spawn(consume) / Enqueue(e)</p></span></div></foreignObject></g><g class="label" style="" transform="translate(0,10.5)"><foreignObject width="249.9375" height="21"><div xmlns="http://www.w3.org/1999/xhtml" style="display: table-cell; white-space: nowrap; line-height: 1.5; max-width: 341px; text-align: center;"><span class="nodeLabel markdown-node-label" style=""><p>+Join() / CancelAndClose() / Token()</p></span></div></foreignObject></g></g><g class="divider" style=""><path d="M-202.3515625 -22.5 C-88.78987856078241 -22.499719395090068, 24.771805378435175 -22.49943879018014, 202.3515625 -22.499 M-202.3515625 -22.5 C-57.04127711565792 -22.499640945976424, 88.26900826868416 -22.49928189195285, 202.3515625 -22.499" stroke="#999" stroke-width="1.3" fill="none" stroke-dasharray="0 0" style=""/></g><g class="divider" style=""><path d="M-202.3515625 22.5 C-90.14053912844916 22.50027726749916, 22.070484243101674 22.500554534998322, 202.3515625 22.501 M-202.3515625 22.5 C-74.09749788089431 22.50031690900489, 54.15656673821138 22.500633818009778, 202.3515625 22.501" stroke="#999" stroke-width="1.3" fill="none" stroke-dasharray="0 0" style=""/></g></g><g class="node default" id="my-svg-classId-Dispatcher-4" data-look="classic" transform="translate(384.0078125, 729.5)"><g class="basic label-container outer-path"><path d="M-254.23828125 -88.5 L254.23828125 -88.5 L254.23828125 88.5 L-254.23828125 88.5" stroke="none" stroke-width="0" fill="#eee" style=""/><path d="M-254.23828125 -88.5 C-100.2261178171587 -88.5, 53.78604561568261 -88.5, 254.23828125 -88.5 M-254.23828125 -88.5 C-78.52440044766982 -88.5, 97.18948035466036 -88.5, 254.23828125 -88.5 M254.23828125 -88.5 C254.23828125 -19.159469435564475, 254.23828125 50.18106112887105, 254.23828125 88.5 M254.23828125 -88.5 C254.23828125 -44.31739453179794, 254.23828125 -0.13478906359587484, 254.23828125 88.5 M254.23828125 88.5 C54.600037431436164 88.5, -145.03820638712767 88.5, -254.23828125 88.5 M254.23828125 88.5 C66.65616628579144 88.5, -120.92594867841711 88.5, -254.23828125 88.5 M-254.23828125 88.5 C-254.23828125 31.218854081570008, -254.23828125 -26.062291836859984, -254.23828125 -88.5 M-254.23828125 88.5 C-254.23828125 30.89307761582196, -254.23828125 -26.713844768356083, -254.23828125 -88.5" stroke="#999" stroke-width="1.3" fill="none" stroke-dasharray="0 0" style=""/></g><g class="annotation-group text" transform="translate(0, -64.5)"/><g class="label-group text" transform="translate(-86.3046875, -64.5)"><g class="label" style="font-weight: bolder" transform="translate(0,-10.5)"><foreignObject width="172.609375" height="21"><div xmlns="http://www.w3.org/1999/xhtml" style="display: table-cell; white-space: nowrap; line-height: 1.5; max-width: 263px; text-align: center;"><span class="nodeLabel markdown-node-label" style=""><p>Dispatcher&lt;T_Fields&gt;</p></span></div></foreignObject></g></g><g class="members-group text" transform="translate(-242.23828125, -19.5)"><g class="label" style="" transform="translate(0,-10.5)"><foreignObject width="398.171875" height="21"><div xmlns="http://www.w3.org/1999/xhtml" style="display: table-cell; white-space: nowrap; line-height: 1.5; max-width: 619px; text-align: center;"><span class="nodeLabel markdown-node-label" style=""><p>-unordered_map&lt;Mask, map&gt;Values, vector&lt;Entry&lt;&gt;&gt;</p></span></div></foreignObject></g></g><g class="methods-group text" transform="translate(-242.23828125, 25.5)"><g class="label" style="" transform="translate(0,-10.5)"><foreignObject width="171.859375" height="21"><div xmlns="http://www.w3.org/1999/xhtml" style="display: table-cell; white-space: nowrap; line-height: 1.5; max-width: 252px; text-align: center;"><span class="nodeLabel markdown-node-label" style=""><p>+Subscribe(Key) : Ticket</p></span></div></foreignObject></g><g class="label" style="" transform="translate(0,10.5)"><foreignObject width="199.234375" height="21"><div xmlns="http://www.w3.org/1999/xhtml" style="display: table-cell; white-space: nowrap; line-height: 1.5; max-width: 283px; text-align: center;"><span class="nodeLabel markdown-node-label" style=""><p>+Dispatch(const T&amp;) : size_t</p></span></div></foreignObject></g><g class="label" style="" transform="translate(0,31.5)"><foreignObject width="112.046875" height="21"><div xmlns="http://www.w3.org/1999/xhtml" style="display: table-cell; white-space: nowrap; line-height: 1.5; max-width: 183px; text-align: center;"><span class="nodeLabel markdown-node-label" style=""><p>+CloseAll(error)</p></span></div></foreignObject></g></g><g class="divider" style=""><path d="M-254.23828125 -43.5 C-51.82452903749652 -43.499601921175646, 150.58922317500696 -43.49920384235129, 254.23828125 -43.499 M-254.23828125 -43.5 C-131.8451089589588 -43.49975929436808, -9.451936667917607 -43.499518588736166, 254.23828125 -43.499" stroke="#999" stroke-width="1.3" fill="none" stroke-dasharray="0 0" style=""/></g><g class="divider" style=""><path d="M-254.23828125 1.5 C-66.8427867979629 1.500368543032801, 120.5527076540742 1.5007370860656022, 254.23828125 1.501 M-254.23828125 1.5 C-133.96177261900704 1.500236542876312, -13.6852639880141 1.500473085752624, 254.23828125 1.501" stroke="#999" stroke-width="1.3" fill="none" stroke-dasharray="0 0" style=""/></g></g><g class="node default" id="my-svg-classId-DdsHandlerContext-5" data-look="classic" transform="translate(1865.69140625, 729.5)"><g class="basic label-container outer-path"><path d="M-204.3203125 -67.5 L204.3203125 -67.5 L204.3203125 67.5 L-204.3203125 67.5" stroke="none" stroke-width="0" fill="#eee" style=""/><path d="M-204.3203125 -67.5 C-99.08188799686674 -67.5, 6.156536506266519 -67.5, 204.3203125 -67.5 M-204.3203125 -67.5 C-101.73760374898376 -67.5, 0.8451050020324828 -67.5, 204.3203125 -67.5 M204.3203125 -67.5 C204.3203125 -16.98184379807784, 204.3203125 33.53631240384432, 204.3203125 67.5 M204.3203125 -67.5 C204.3203125 -35.68121220991776, 204.3203125 -3.86242441983552, 204.3203125 67.5 M204.3203125 67.5 C63.27983067393177 67.5, -77.76065115213646 67.5, -204.3203125 67.5 M204.3203125 67.5 C118.790275936334 67.5, 33.260239372667996 67.5, -204.3203125 67.5 M-204.3203125 67.5 C-204.3203125 32.0737985861328, -204.3203125 -3.3524028277343945, -204.3203125 -67.5 M-204.3203125 67.5 C-204.3203125 19.28891299066052, -204.3203125 -28.92217401867896, -204.3203125 -67.5" stroke="#999" stroke-width="1.3" fill="none" stroke-dasharray="0 0" style=""/></g><g class="annotation-group text" transform="translate(-130.765625, -43.5)"><g class="label" style="" transform="translate(0,-10.5)"><foreignObject width="261.53125" height="21"><div xmlns="http://www.w3.org/1999/xhtml" style="display: table-cell; white-space: nowrap; line-height: 1.5; max-width: 349px; text-align: center;"><span class="nodeLabel markdown-node-label" style=""><p>«仅 DdsNode 用 · ADR-0009 过渡遗留»</p></span></div></foreignObject></g></g><g class="label-group text" transform="translate(-77.0546875, -22.5)"><g class="label" style="font-weight: bolder" transform="translate(0,-10.5)"><foreignObject width="154.109375" height="21"><div xmlns="http://www.w3.org/1999/xhtml" style="display: table-cell; white-space: nowrap; line-height: 1.5; max-width: 207px; text-align: center;"><span class="nodeLabel markdown-node-label" style=""><p>DdsHandlerContext</p></span></div></foreignObject></g></g><g class="members-group text" transform="translate(-192.3203125, 22.5)"><g class="label" style="" transform="translate(0,-10.5)"><foreignObject width="253.875" height="21"><div xmlns="http://www.w3.org/1999/xhtml" style="display: table-cell; white-space: nowrap; line-height: 1.5; max-width: 346px; text-align: center;"><span class="nodeLabel markdown-node-label" style=""><p>+Send / RequestClose / cancellation</p></span></div></foreignObject></g></g><g class="methods-group text" transform="translate(-192.3203125, 67.5)"/><g class="divider" style=""><path d="M-204.3203125 -1.5 C-60.618355429688734 -1.4996483414808053, 83.08360164062253 -1.4992966829616106, 204.3203125 -1.499 M-204.3203125 -1.5 C-58.6038213736561 -1.4996434116379733, 87.1126697526878 -1.4992868232759466, 204.3203125 -1.499" stroke="#999" stroke-width="1.3" fill="none" stroke-dasharray="0 0" style=""/></g><g class="divider" style=""><path d="M-204.3203125 43.5 C-81.39036142357044 43.50030082655408, 41.53958965285912 43.50060165310816, 204.3203125 43.501 M-204.3203125 43.5 C-119.1119025870754 43.500208516737445, -33.90349267415081 43.50041703347489, 204.3203125 43.501" stroke="#999" stroke-width="1.3" fill="none" stroke-dasharray="0 0" style=""/></g></g><g class="node default" id="my-svg-classId-ITransport-6" data-look="classic" transform="translate(1104.11328125, 729.5)"><g class="basic label-container outer-path"><path d="M-52.5546875 -40.5 L52.5546875 -40.5 L52.5546875 40.5 L-52.5546875 40.5" stroke="none" stroke-width="0" fill="#eee" style=""/><path d="M-52.5546875 -40.5 C-28.832500209530618 -40.5, -5.110312919061236 -40.5, 52.5546875 -40.5 M-52.5546875 -40.5 C-11.51338624403084 -40.5, 29.52791501193832 -40.5, 52.5546875 -40.5 M52.5546875 -40.5 C52.5546875 -18.49177007063587, 52.5546875 3.516459858728261, 52.5546875 40.5 M52.5546875 -40.5 C52.5546875 -12.035196006267459, 52.5546875 16.429607987465083, 52.5546875 40.5 M52.5546875 40.5 C15.217149236500148 40.5, -22.120389026999703 40.5, -52.5546875 40.5 M52.5546875 40.5 C16.52667011278958 40.5, -19.501347274420837 40.5, -52.5546875 40.5 M-52.5546875 40.5 C-52.5546875 19.277666275383304, -52.5546875 -1.9446674492333926, -52.5546875 -40.5 M-52.5546875 40.5 C-52.5546875 21.16484071543246, -52.5546875 1.8296814308649232, -52.5546875 -40.5" stroke="#999" stroke-width="1.3" fill="none" stroke-dasharray="0 0" style=""/></g><g class="annotation-group text" transform="translate(0, -16.5)"/><g class="label-group text" transform="translate(-40.5546875, -16.5)"><g class="label" style="font-weight: bolder" transform="translate(0,-10.5)"><foreignObject width="81.109375" height="21"><div xmlns="http://www.w3.org/1999/xhtml" style="display: table-cell; white-space: nowrap; line-height: 1.5; max-width: 130px; text-align: center;"><span class="nodeLabel markdown-node-label" style=""><p>ITransport</p></span></div></foreignObject></g></g><g class="members-group text" transform="translate(-40.5546875, 28.5)"/><g class="methods-group text" transform="translate(-40.5546875, 58.5)"/><g class="divider" style=""><path d="M-52.5546875 4.5 C-17.42831387403598 4.500334188778365, 17.698059751928042 4.50066837755673, 52.5546875 4.501 M-52.5546875 4.5 C-22.955419564497152 4.500281604451891, 6.643848371005696 4.500563208903783, 52.5546875 4.501" stroke="#999" stroke-width="1.3" fill="none" stroke-dasharray="0 0" style=""/></g><g class="divider" style=""><path d="M-52.5546875 22.5 C-23.83443189433895 22.50027324161718, 4.885823711322097 22.50054648323436, 52.5546875 22.501 M-52.5546875 22.5 C-30.980581176082115 22.50020525387316, -9.40647485216423 22.500410507746317, 52.5546875 22.501" stroke="#999" stroke-width="1.3" fill="none" stroke-dasharray="0 0" style=""/></g></g><g class="node undefined" id="my-svg-note0" data-look="classic" transform="translate(367.0078125, 468)"><g class="basic label-container outer-path"><path d="M-359.0078125 -16.5 L359.0078125 -16.5 L359.0078125 16.5 L-359.0078125 16.5" stroke="none" stroke-width="0" fill="#666" style="fill:#666 !important;stroke:#999 !important"/><path d="M-359.0078125 -16.5 C-173.04680202278763 -16.5, 12.914208454424738 -16.5, 359.0078125 -16.5 M-359.0078125 -16.5 C-95.80019479424334 -16.5, 167.40742291151332 -16.5, 359.0078125 -16.5 M359.0078125 -16.5 C359.0078125 -4.767991920073261, 359.0078125 6.964016159853479, 359.0078125 16.5 M359.0078125 -16.5 C359.0078125 -6.452585138495602, 359.0078125 3.5948297230087967, 359.0078125 16.5 M359.0078125 16.5 C165.3247346688211 16.5, -28.358343162357812 16.5, -359.0078125 16.5 M359.0078125 16.5 C201.99810713848916 16.5, 44.98840177697832 16.5, -359.0078125 16.5 M-359.0078125 16.5 C-359.0078125 7.13489756997444, -359.0078125 -2.2302048600511206, -359.0078125 -16.5 M-359.0078125 16.5 C-359.0078125 4.5879699388369595, -359.0078125 -7.324060122326081, -359.0078125 -16.5" stroke="#999" stroke-width="1.3" fill="none" stroke-dasharray="0 0" style="fill:#666 !important;stroke:#999 !important"/></g><g class="label noteLabel" style="text-align:left !important;white-space:nowrap !important" transform="translate(-353.0078125, -10.5)"><rect/><foreignObject width="706.015625" height="21"><div style="text-align: center; white-space: break-spaces; display: table; line-height: 1.5; max-width: 200px; width: 200px;" xmlns="http://www.w3.org/1999/xhtml"><span style="text-align:left !important;white-space:nowrap !important" class="nodeLabel markdown-node-label"><p>订阅时不参与匹配的字段填 kAny\n一条消息投给全部键匹配者，各得一份\n成本 O(在用 mask 种数 + 收件人数)</p></span></div></foreignObject></g></g><g class="node undefined" id="my-svg-note1" data-look="classic" transform="translate(1405.31640625, 24.5)"><g class="basic label-container outer-path"><path d="M-229.6015625 -16.5 L229.6015625 -16.5 L229.6015625 16.5 L-229.6015625 16.5" stroke="none" stroke-width="0" fill="#666" style="fill:#666 !important;stroke:#999 !important"/><path d="M-229.6015625 -16.5 C-77.69494369758544 -16.5, 74.21167510482911 -16.5, 229.6015625 -16.5 M-229.6015625 -16.5 C-126.2891329230379 -16.5, -22.976703346075794 -16.5, 229.6015625 -16.5 M229.6015625 -16.5 C229.6015625 -7.3906772549256345, 229.6015625 1.718645490148731, 229.6015625 16.5 M229.6015625 -16.5 C229.6015625 -3.3639857134394777, 229.6015625 9.772028573121045, 229.6015625 16.5 M229.6015625 16.5 C117.28971149411007 16.5, 4.977860488220131 16.5, -229.6015625 16.5 M229.6015625 16.5 C122.51347682026466 16.5, 15.425391140529314 16.5, -229.6015625 16.5 M-229.6015625 16.5 C-229.6015625 7.178583830489835, -229.6015625 -2.1428323390203303, -229.6015625 -16.5 M-229.6015625 16.5 C-229.6015625 6.113206869531334, -229.6015625 -4.273586260937332, -229.6015625 -16.5" stroke="#999" stroke-width="1.3" fill="none" stroke-dasharray="0 0" style="fill:#666 !important;stroke:#999 !important"/></g><g class="label noteLabel" style="text-align:left !important;white-space:nowrap !important" transform="translate(-223.6015625, -10.5)"><rect/><foreignObject width="447.203125" height="21"><div style="text-align: center; white-space: break-spaces; display: table; line-height: 1.5; max-width: 200px; width: 200px;" xmlns="http://www.w3.org/1999/xhtml"><span style="text-align:left !important;white-space:nowrap !important" class="nodeLabel markdown-node-label"><p>Close 只发信号、任何 fiber 可调；\nWaitClosed 无时限，语义即 join</p></span></div></foreignObject></g></g></g></g></g><defs><filter id="my-svg-drop-shadow" height="130%" width="130%"><feDropShadow dx="4" dy="4" stdDeviation="0" flood-opacity="0.06" flood-color="#000000"/></filter></defs><defs><filter id="my-svg-drop-shadow-small" height="150%" width="150%"><feDropShadow dx="2" dy="2" stdDeviation="0" flood-opacity="0.06" flood-color="#000000"/></filter></defs><linearGradient id="my-svg-gradient" gradientUnits="objectBoundingBox" x1="0%" y1="0%" x2="100%" y2="0%"><stop offset="0%" stop-color="hsl(0, 0%, 83.3333333333%)" stop-opacity="1"/><stop offset="100%" stop-color="hsl(0, 0%, 88.9215686275%)" stop-opacity="1"/></linearGradient></svg>