<svg id="my-svg" width="100%" xmlns="http://www.w3.org/2000/svg" xmlns:xlink="http://www.w3.org/1999/xlink" class="statediagram" style="max-width: 1949.29px; background-color: white;" viewBox="0 0 1949.2882080078125 582.5999755859375" role="graphics-document document" aria-roledescription="stateDiagram"><style>#my-svg{font-family:"trebuchet ms",verdana,arial,sans-serif;font-size:14px;fill:#000000;}@keyframes edge-animation-frame{from{stroke-dashoffset:0;}}@keyframes dash{to{stroke-dashoffset:0;}}#my-svg .edge-animation-slow{stroke-dasharray:9,5!important;stroke-dashoffset:900;animation:dash 50s linear infinite;stroke-linecap:round;}#my-svg .edge-animation-fast{stroke-dasharray:9,5!important;stroke-dashoffset:900;animation:dash 20s linear infinite;stroke-linecap:round;}#my-svg .error-icon{fill:#552222;}#my-svg .error-text{fill:#552222;stroke:#552222;}#my-svg .edge-thickness-normal{stroke-width:1px;}#my-svg .edge-thickness-thick{stroke-width:3.5px;}#my-svg .edge-pattern-solid{stroke-dasharray:0;}#my-svg .edge-thickness-invisible{stroke-width:0;fill:none;}#my-svg .edge-pattern-dashed{stroke-dasharray:3;}#my-svg .edge-pattern-dotted{stroke-dasharray:2;}#my-svg .marker{fill:#666;stroke:#666;}#my-svg .marker.cross{stroke:#666;}#my-svg svg{font-family:"trebuchet ms",verdana,arial,sans-serif;font-size:14px;}#my-svg p{margin:0;}#my-svg defs [id$="-barbEnd"]{fill:#000;stroke:#000;}#my-svg g.stateGroup text{fill:#999;stroke:none;font-size:10px;}#my-svg g.stateGroup text{fill:#000000;stroke:none;font-size:10px;}#my-svg g.stateGroup .state-title{font-weight:bolder;fill:#111111;}#my-svg g.stateGroup rect{fill:#eee;stroke:#999;}#my-svg g.stateGroup line{stroke:#666;stroke-width:1;}#my-svg .transition{stroke:#000;stroke-width:1;fill:none;}#my-svg .stateGroup .composit{fill:#ffffff;border-bottom:1px;}#my-svg .stateGroup .alt-composit{fill:#e0e0e0;border-bottom:1px;}#my-svg .state-note{stroke:#999;fill:#666;}#my-svg .state-note text{fill:#fff;stroke:none;font-size:10px;}#my-svg .stateLabel .box{stroke:none;stroke-width:0;fill:#eee;opacity:0.5;}#my-svg .edgeLabel .label rect{fill:#eee;opacity:0.5;}#my-svg .edgeLabel{background-color:white;text-align:center;}#my-svg .edgeLabel p{background-color:white;}#my-svg .edgeLabel rect{opacity:0.5;background-color:white;fill:white;}#my-svg .edgeLabel .label text{fill:#000000;}#my-svg .label div .edgeLabel{color:#000000;}#my-svg .stateLabel text{fill:#111111;font-size:10px;font-weight:bold;}#my-svg .node circle.state-start{fill:#222;stroke:#222;}#my-svg .node .fork-join{fill:#222;stroke:#222;}#my-svg .node circle.state-end{fill:hsl(0, 0%, 83.3333333333%);stroke:#ffffff;stroke-width:1.5;}#my-svg .end-state-inner{fill:#ffffff;stroke-width:1.5;}#my-svg .node rect{fill:#eee;stroke:#000;stroke-width:1px;}#my-svg .node polygon{fill:#eee;stroke:#000;stroke-width:1px;}#my-svg [id$="-barbEnd"]{fill:#666;}#my-svg .statediagram-cluster rect{fill:#eee;stroke:#000;stroke-width:1px;}#my-svg .cluster-label,#my-svg .nodeLabel{color:#111111;}#my-svg .statediagram-cluster rect.outer{rx:5px;ry:5px;}#my-svg .statediagram-state .divider{stroke:#000;}#my-svg .statediagram-state .title-state{rx:5px;ry:5px;}#my-svg .statediagram-cluster.statediagram-cluster .inner{fill:#ffffff;}#my-svg .statediagram-cluster.statediagram-cluster-alt .inner{fill:#f4f4f4;}#my-svg .statediagram-cluster .inner{rx:0;ry:0;}#my-svg .statediagram-state rect.basic{rx:5px;ry:5px;}#my-svg .statediagram-state rect.divider{stroke-dasharray:10,10;fill:#f4f4f4;}#my-svg .note-edge{stroke-dasharray:5;}#my-svg .statediagram-note rect{fill:#666;stroke:#999;stroke-width:1px;rx:0;ry:0;}#my-svg .statediagram-note rect{fill:#666;stroke:#999;stroke-width:1px;rx:0;ry:0;}#my-svg .statediagram-note text{fill:#fff;}#my-svg .statediagram-note .nodeLabel{color:#fff;}#my-svg .statediagram .edgeLabel{color:red;}#my-svg [id$="-dependencyStart"],#my-svg [id$="-dependencyEnd"]{fill:#666;stroke:#666;stroke-width:1;}#my-svg .statediagramTitleText{text-anchor:middle;font-size:18px;fill:#000000;}#my-svg [data-look="neo"].statediagram-cluster rect{fill:#eee;stroke:url(#my-svg-gradient);stroke-width:1;}#my-svg [data-look="neo"].statediagram-cluster rect.outer{rx:5px;ry:5px;filter:drop-shadow( 1px 2px 2px rgba(185,185,185,1));}#my-svg .node .neo-node{stroke:#999;}#my-svg [data-look="neo"].node rect,#my-svg [data-look="neo"].cluster rect,#my-svg [data-look="neo"].node polygon{stroke:url(#my-svg-gradient);filter:drop-shadow( 1px 2px 2px rgba(185,185,185,1));}#my-svg [data-look="neo"].swimlane.cluster rect{filter:none;}#my-svg [data-look="neo"].node path{stroke:url(#my-svg-gradient);stroke-width:1px;}#my-svg [data-look="neo"].node .outer-path{filter:drop-shadow( 1px 2px 2px rgba(185,185,185,1));}#my-svg [data-look="neo"].node .neo-line path{stroke:#999;filter:none;}#my-svg [data-look="neo"].node circle{stroke:url(#my-svg-gradient);filter:drop-shadow( 1px 2px 2px rgba(185,185,185,1));}#my-svg [data-look="neo"].node circle .state-start{fill:#000000;}#my-svg [data-look="neo"].icon-shape .icon{fill:url(#my-svg-gradient);filter:drop-shadow( 1px 2px 2px rgba(185,185,185,1));}#my-svg [data-look="neo"].icon-shape .icon-neo path{stroke:url(#my-svg-gradient);filter:drop-shadow( 1px 2px 2px rgba(185,185,185,1));}#my-svg :root{--mermaid-font-family:"trebuchet ms",verdana,arial,sans-serif;}</style><g><defs><marker id="my-svg_stateDiagram-barbEnd" refX="19" refY="7" markerWidth="20" markerHeight="14" markerUnits="userSpaceOnUse" orient="auto"><path d="M 19,7 L9,13 L14,7 L9,1 Z"/></marker></defs><g class="root"><g class="clusters"><g class="note-cluster" id="my-svg-state-Closing----parent-10"><rect x="1235.96875" y="99" width="280" height="226" fill="none"/></g><g class="note-cluster" id="my-svg-state-Running----parent-11"><rect x="705.96875" y="8" width="280" height="184" fill="none"/></g></g><g class="edgePaths"><path d="M22,280.775L26.167,280.775C30.333,280.775,38.667,280.775,47,280.775C55.333,280.775,63.667,280.775,67.833,280.775L72,280.775" id="my-svg-edge0" class="edge-thickness-normal edge-pattern-solid transition" style="fill:none;;;fill:none" data-edge="true" data-et="edge" data-id="edge0" data-points="W3sieCI6MjIsInkiOjI4MC43NzUwMDAwMDAzNzI1M30seyJ4Ijo0NywieSI6MjgwLjc3NTAwMDAwMDM3MjUzfSx7IngiOjcyLCJ5IjoyODAuNzc1MDAwMDAwMzcyNTN9XQ==" data-look="classic" marker-end="url(#my-svg_stateDiagram-barbEnd)"/><path d="M137.628,299.275L158.492,311.071C179.356,322.867,221.084,346.458,262.782,358.254C304.479,370.05,346.146,370.05,366.979,370.05L387.813,370.05" id="my-svg-edge2" class="edge-thickness-normal edge-pattern-solid transition" style="fill:none;;;fill:none" data-edge="true" data-et="edge" data-id="edge2" data-points="W3sieCI6MTM3LjYyODM1MTY1MjA2MTcyLCJ5IjoyOTkuMjc1MDAwMDAwMzcyNTN9LHsieCI6MjYyLjgxMjUsInkiOjM3MC4wNTAwMDAwMDA3NDUwNn0seyJ4IjozODcuODEyNSwieSI6MzcwLjA1MDAwMDAwMDc0NTA2fV0=" data-look="classic" marker-end="url(#my-svg_stateDiagram-barbEnd)"/><path d="M454.654,388.55L475.706,400.438C496.759,412.325,538.864,436.1,580.75,447.988C622.635,459.875,664.302,459.875,703.243,459.875C742.185,459.875,778.401,459.875,796.509,459.875L814.617,459.875" id="my-svg-edge5" class="edge-thickness-normal edge-pattern-solid transition" style="fill:none;;;fill:none" data-edge="true" data-et="edge" data-id="edge5" data-points="W3sieCI6NDU0LjY1MzcyMzM4NTM0MjQ2LCJ5IjozODguNTUwMDAwMDAwNzQ1MDZ9LHsieCI6NTgwLjk2ODc1LCJ5Ijo0NTkuODc1MDAwMDAxODYyNjV9LHsieCI6NzA1Ljk2ODc1LCJ5Ijo0NTkuODc1MDAwMDAxODYyNjV9LHsieCI6ODE0LjYxNzE4NzUsInkiOjQ1OS44NzUwMDAwMDE4NjI2NX1d" data-look="classic" marker-end="url(#my-svg_stateDiagram-barbEnd)"/><path d="M877.089,478.375L895.236,489.163C913.382,499.95,949.676,521.525,988.655,532.313C1027.635,543.1,1069.302,543.1,1110.969,543.1C1152.635,543.1,1194.302,543.1,1233.503,543.1C1272.703,543.1,1309.438,543.1,1327.805,543.1L1346.172,543.1" id="my-svg-edge7" class="edge-thickness-normal edge-pattern-solid transition" style="fill:none;;;fill:none" data-edge="true" data-et="edge" data-id="edge7" data-points="W3sieCI6ODc3LjA4OTIwNjU5MzcxMSwieSI6NDc4LjM3NTAwMDAwMTg2MjY1fSx7IngiOjk4NS45Njg3NSwieSI6NTQzLjEwMDAwMDAwMTQ5MDF9LHsieCI6MTExMC45Njg3NSwieSI6NTQzLjEwMDAwMDAwMTQ5MDF9LHsieCI6MTIzNS45Njg3NSwieSI6NTQzLjEwMDAwMDAwMTQ5MDF9LHsieCI6MTM0Ni4xNzE4NzUsInkiOjU0My4xMDAwMDAwMDE0OTAxfV0=" data-look="classic" marker-end="url(#my-svg_stateDiagram-barbEnd)"/><path d="M1390.929,524.6L1411.769,498.829C1432.609,473.058,1474.289,421.517,1512.585,395.746C1550.88,369.975,1585.792,369.975,1620.703,369.975C1655.615,369.975,1690.526,369.975,1707.982,369.975L1725.438,369.975" id="my-svg-edge9" class="edge-thickness-normal edge-pattern-solid transition" style="fill:none;;;fill:none" data-edge="true" data-et="edge" data-id="edge9" data-points="W3sieCI6MTM5MC45MjkwMzg4MDg1MDMzLCJ5Ijo1MjQuNjAwMDAwMDAxNDkwMX0seyJ4IjoxNTE1Ljk2ODc1LCJ5IjozNjkuOTc0OTk5OTk5NjI3NDd9LHsieCI6MTYyMC43MDMxMjUsInkiOjM2OS45NzQ5OTk5OTk2Mjc0N30seyJ4IjoxNzI1LjQzNzUsInkiOjM2OS45NzQ5OTk5OTk2Mjc0N31d" data-look="classic" marker-end="url(#my-svg_stateDiagram-barbEnd)"/><path d="M856.418,441.375L878.009,403.146C899.601,364.917,942.785,288.458,985.21,250.229C1027.635,212,1069.302,212,1110.969,212C1152.635,212,1194.302,212,1219.302,212C1244.302,212,1252.635,212,1256.802,212L1260.969,212" id="my-svg-Closing-Closing----note-10" class="edge-thickness-normal edge-pattern-solid transition note-edge" style="fill:none;;;fill:none" data-edge="true" data-et="edge" data-id="Closing-Closing----note-10" data-points="W3sieCI6ODU2LjQxNzU2NDkyNjgsInkiOjQ0MS4zNzUwMDAwMDE4NjI2NX0seyJ4Ijo5ODUuOTY4NzUsInkiOjIxMn0seyJ4IjoxMTEwLjk2ODc1LCJ5IjoyMTJ9LHsieCI6MTIzNS45Njg3NSwieSI6MjEyfSx7IngiOjEyNjAuOTY4NzUsInkiOjIxMn1d" data-look="classic"/><path d="M432.788,351.55L457.485,309.625C482.182,267.7,531.575,183.85,577.105,141.925C622.635,100,664.302,100,689.302,100C714.302,100,722.635,100,726.802,100L730.969,100" id="my-svg-Running-Running----note-11" class="edge-thickness-normal edge-pattern-solid transition note-edge" style="fill:none;;;fill:none" data-edge="true" data-et="edge" data-id="Running-Running----note-11" data-points="W3sieCI6NDMyLjc4ODQwNDM0NjM4NzI3LCJ5IjozNTEuNTUwMDAwMDAwNzQ1MDZ9LHsieCI6NTgwLjk2ODc1LCJ5IjoxMDB9LHsieCI6NzA1Ljk2ODc1LCJ5IjoxMDB9LHsieCI6NzMwLjk2ODc1LCJ5IjoxMDB9XQ==" data-look="classic"/><path d="M137.813,265.552L141.813,263.702C145.813,261.852,153.813,258.151,157.813,265.075C161.813,272,161.813,289.55,157.813,296.475C153.813,303.399,145.813,299.698,141.813,297.848L137.813,295.998" id="my-svg-edge3" class="edge-thickness-normal edge-pattern-solid transition" style="fill:none;;;fill:none" data-edge="true" data-et="edge" data-id="edge3" data-points="W3sieCI6MTM3LjgxMjUsInkiOjI2NS41NTI0NzExNzAwNTk1fSx7IngiOjE2MS44MTI1LCJ5IjoyNTQuNDUwMDAwMDAwMzcyNTR9LHsieCI6MTYxLjgxMjUsInkiOjMwNy4xMDAwMDAwMDAzNzI1fSx7IngiOjEzNy44MTI1LCJ5IjoyOTUuOTk3NTI4ODMwNjg1NTV9XQ==" data-look="classic" marker-end="url(#my-svg_stateDiagram-barbEnd)"/><path d="M455.969,354.053L459.969,352.176C463.969,350.298,471.969,346.543,475.969,353.753C479.969,360.963,479.969,379.138,475.969,386.347C471.969,393.557,463.969,389.802,459.969,387.924L455.969,386.047" id="my-svg-edge4" class="edge-thickness-normal edge-pattern-solid transition" style="fill:none;;;fill:none" data-edge="true" data-et="edge" data-id="edge4" data-points="W3sieCI6NDU1Ljk2ODc1LCJ5IjozNTQuMDUzMzU5NTY0OTA5N30seyJ4Ijo0NzkuOTY4NzUsInkiOjM0Mi43ODc1MDAwMDA3NDUwN30seyJ4Ijo0NzkuOTY4NzUsInkiOjM5Ny4zMTI1MDAwMDA3NDUwNX0seyJ4Ijo0NTUuOTY4NzUsInkiOjM4Ni4wNDY2NDA0MzY1ODA0fV0=" data-look="classic" marker-end="url(#my-svg_stateDiagram-barbEnd)"/><path d="M877.32,445.669L881.32,443.856C885.32,442.044,893.32,438.419,897.32,444.967C901.32,451.515,901.32,468.235,897.32,474.783C893.32,481.331,885.32,477.706,881.32,475.894L877.32,474.081" id="my-svg-edge6" class="edge-thickness-normal edge-pattern-solid transition" style="fill:none;;;fill:none" data-edge="true" data-et="edge" data-id="edge6" data-points="W3sieCI6ODc3LjMyMDMxMjUsInkiOjQ0NS42Njg3ODE3NTkwOTYyNX0seyJ4Ijo5MDEuMzIwMzEyNSwieSI6NDM0Ljc5Mzc1MDAwMTg2MjYzfSx7IngiOjkwMS4zMjAzMTI1LCJ5Ijo0ODQuOTU2MjUwMDAxODYyNjZ9LHsieCI6ODc3LjMyMDMxMjUsInkiOjQ3NC4wODEyMTgyNDQ2MjkwNH1d" data-look="classic" marker-end="url(#my-svg_stateDiagram-barbEnd)"/><path d="M1405.766,529.897L1409.766,528.125C1413.766,526.352,1421.766,522.807,1425.766,528.981C1429.766,535.154,1429.766,551.046,1425.766,557.219C1421.766,563.393,1413.766,559.848,1409.766,558.075L1405.766,556.303" id="my-svg-edge8" class="edge-thickness-normal edge-pattern-solid transition" style="fill:none;;;fill:none" data-edge="true" data-et="edge" data-id="edge8" data-points="W3sieCI6MTQwNS43NjU2MjUsInkiOjUyOS44OTY5NDY3MDQ5NDY1fSx7IngiOjE0MjkuNzY1NjI1LCJ5Ijo1MTkuMjYyNTAwMDAxNDkwMX0seyJ4IjoxNDI5Ljc2NTYyNSwieSI6NTY2LjkzNzUwMDAwMTQ5MDF9LHsieCI6MTQwNS43NjU2MjUsInkiOjU1Ni4zMDMwNTMyOTgwMzM4fV0=" data-look="classic" marker-end="url(#my-svg_stateDiagram-barbEnd)"/></g><g class="edgeLabels"><g class="edgeLabel"><g class="label" data-id="edge0" transform="translate(0, 0)"><foreignObject width="0" height="0"><div xmlns="http://www.w3.org/1999/xhtml" class="labelBkg" style="display: table-cell; white-space: nowrap; line-height: 1.5; max-width: 200px; text-align: center;"><span class="edgeLabel"></span></div></foreignObject></g></g><g class="edgeLabel" transform="translate(265.8125, 280.77500000037253)"><g class="label" data-id="edge3" transform="translate(-100, -31.5)"><foreignObject width="200" height="63"><div xmlns="http://www.w3.org/1999/xhtml" class="labelBkg" style="display: table; white-space: break-spaces; line-height: 1.5; max-width: 200px; text-align: center; width: 200px;"><span class="edgeLabel"><p>并发 Start<br />(await start_done_，不重复 spawn)</p></span></div></foreignObject></g></g><g class="edgeLabel" transform="translate(262.8125, 370.05000000074506)"><g class="label" data-id="edge2" transform="translate(-100, -42)"><foreignObject width="200" height="84"><div xmlns="http://www.w3.org/1999/xhtml" class="labelBkg" style="display: table; white-space: break-spaces; line-height: 1.5; max-width: 200px; text-align: center; width: 200px;"><span class="edgeLabel"><p>首个 Start 成功<br />(transport.Start + MarkRunning<br />+ spawn 读循环/handler/reactor)</p></span></div></foreignObject></g></g><g class="edgeLabel" transform="translate(556.703125, 370.05000000074506)"><g class="label" data-id="edge4" transform="translate(-72.734375, -10.5)"><foreignObject width="145.46875" height="21"><div xmlns="http://www.w3.org/1999/xhtml" class="labelBkg" style="display: table-cell; white-space: nowrap; line-height: 1.5; max-width: 200px; text-align: center;"><span class="edgeLabel"><p>再次 Start（幂等成功）</p></span></div></foreignObject></g></g><g class="edgeLabel" transform="translate(580.96875, 459.87500000186265)"><g class="label" data-id="edge5" transform="translate(-73.703125, -21)"><foreignObject width="147.40625" height="42"><div xmlns="http://www.w3.org/1999/xhtml" class="labelBkg" style="display: table-cell; white-space: nowrap; line-height: 1.5; max-width: 200px; text-align: center;"><span class="edgeLabel"><p>首个 Close<br />(三方汇合信号 + FailAll)</p></span></div></foreignObject></g></g><g class="edgeLabel" transform="translate(985.0546875, 459.87500000186265)"><g class="label" data-id="edge6" transform="translate(-79.734375, -21)"><foreignObject width="159.46875" height="42"><div xmlns="http://www.w3.org/1999/xhtml" class="labelBkg" style="display: table-cell; white-space: nowrap; line-height: 1.5; max-width: 200px; text-align: center;"><span class="edgeLabel"><p>后续 Close<br />(共享 closed_，多等待者)</p></span></div></foreignObject></g></g><g class="edgeLabel" transform="translate(1110.96875, 543.1000000014901)"><g class="label" data-id="edge7" transform="translate(-100, -31.5)"><foreignObject width="200" height="63"><div xmlns="http://www.w3.org/1999/xhtml" class="labelBkg" style="display: table; white-space: break-spaces; line-height: 1.5; max-width: 200px; text-align: center; width: 200px;"><span class="edgeLabel"><p>finalizer 汇合完成<br />(读循环+handler 退出→close_drop→Closed)</p></span></div></foreignObject></g></g><g class="edgeLabel" transform="translate(1509.609375, 543.1000000014901)"><g class="label" data-id="edge8" transform="translate(-75.84375, -10.5)"><foreignObject width="151.6875" height="21"><div xmlns="http://www.w3.org/1999/xhtml" class="labelBkg" style="display: table-cell; white-space: nowrap; line-height: 1.5; max-width: 200px; text-align: center;"><span class="edgeLabel"><p>再次 Close（直接成功）</p></span></div></foreignObject></g></g><g class="edgeLabel"><g class="label" data-id="edge9" transform="translate(0, 0)"><foreignObject width="0" height="0"><div xmlns="http://www.w3.org/1999/xhtml" class="labelBkg" style="display: table-cell; white-space: nowrap; line-height: 1.5; max-width: 200px; text-align: center;"><span class="edgeLabel"></span></div></foreignObject></g></g><g class="edgeLabel"><g class="label" data-id="Closing-Closing----note-10" transform="translate(0, 0)"><foreignObject width="0" height="0"><div xmlns="http://www.w3.org/1999/xhtml" class="labelBkg" style="display: table-cell; white-space: nowrap; line-height: 1.5; max-width: 200px; text-align: center;"><span class="edgeLabel"></span></div></foreignObject></g></g><g class="edgeLabel"><g class="label" data-id="Running-Running----note-11" transform="translate(0, 0)"><foreignObject width="0" height="0"><div xmlns="http://www.w3.org/1999/xhtml" class="labelBkg" style="display: table-cell; white-space: nowrap; line-height: 1.5; max-width: 200px; text-align: center;"><span class="edgeLabel"></span></div></foreignObject></g></g></g><g class="nodes"><g class="node default" id="my-svg-state-root_start-0" data-look="classic" transform="translate(15, 280.77500000037253)"><circle class="state-start" r="7" width="14" height="14"/></g><g class="node  statediagram-state" id="my-svg-state-Created-3" data-look="classic" transform="translate(104.90625, 280.77500000037253)"><rect class="basic label-container" style="" rx="5" ry="5" x="-32.90625" y="-18.5" width="65.8125" height="37"/><g class="label" style="" transform="translate(-24.90625, -10.5)"><rect/><foreignObject width="49.8125" height="21"><div xmlns="http://www.w3.org/1999/xhtml" style="display: table-cell; white-space: nowrap; line-height: 1.5; max-width: 200px; text-align: center;"><span class="nodeLabel markdown-node-label"><p>Created</p></span></div></foreignObject></g></g><g class="node  statediagram-state" id="my-svg-state-Running-11" data-look="classic" transform="translate(421.890625, 370.05000000074506)"><rect class="basic label-container" style="" rx="5" ry="5" x="-34.078125" y="-18.5" width="68.15625" height="37"/><g class="label" style="" transform="translate(-26.078125, -10.5)"><rect/><foreignObject width="52.15625" height="21"><div xmlns="http://www.w3.org/1999/xhtml" style="display: table-cell; white-space: nowrap; line-height: 1.5; max-width: 200px; text-align: center;"><span class="nodeLabel markdown-node-label"><p>Running</p></span></div></foreignObject></g></g><g class="node  statediagram-state" id="my-svg-state-Closing-10" data-look="classic" transform="translate(845.96875, 459.87500000186265)"><rect class="basic label-container" style="" rx="5" ry="5" x="-31.3515625" y="-18.5" width="62.703125" height="37"/><g class="label" style="" transform="translate(-23.3515625, -10.5)"><rect/><foreignObject width="46.703125" height="21"><div xmlns="http://www.w3.org/1999/xhtml" style="display: table-cell; white-space: nowrap; line-height: 1.5; max-width: 200px; text-align: center;"><span class="nodeLabel markdown-node-label"><p>Closing</p></span></div></foreignObject></g></g><g class="node  statediagram-state" id="my-svg-state-Closed-9" data-look="classic" transform="translate(1375.96875, 543.1000000014901)"><rect class="basic label-container" style="" rx="5" ry="5" x="-29.796875" y="-18.5" width="59.59375" height="37"/><g class="label" style="" transform="translate(-21.796875, -10.5)"><rect/><foreignObject width="43.59375" height="21"><div xmlns="http://www.w3.org/1999/xhtml" style="display: table-cell; white-space: nowrap; line-height: 1.5; max-width: 200px; text-align: center;"><span class="nodeLabel markdown-node-label"><p>Closed</p></span></div></foreignObject></g></g><g class="node default" id="my-svg-state-root_end-9" data-look="classic" transform="translate(1732.4441466331482, 369.97499999962747)"><g class="outer-path"><path d="M7 0 C7 0.40517908122283747, 6.964012880168563 0.816513743121899, 6.893654271085456 1.2155372436685123 C6.823295662002349 1.6145607442151257, 6.716427752933756 2.013397210557766, 6.5778483455013586 2.394141003279681 C6.439268938068961 2.7748847960015954, 6.26476736710249 3.149104622578984, 6.062177826491071 3.4999999999999996 C5.859588285879653 3.8508953774210153, 5.622755194947063 4.189128084166967, 5.362311101832846 4.499513267805774 C5.10186700871863 4.809898451444582, 4.809898451444583 5.10186700871863, 4.499513267805775 5.362311101832846 C4.189128084166968 5.622755194947063, 3.8508953774210166 5.859588285879652, 3.500000000000001 6.06217782649107 C3.149104622578985 6.264767367102489, 2.7748847960015963 6.439268938068961, 2.3941410032796817 6.5778483455013586 C2.013397210557767 6.716427752933756, 1.6145607442151264 6.823295662002349, 1.2155372436685128 6.893654271085456 C0.8165137431218992 6.964012880168563, 0.4051790812228379 7, 4.286263797015736e-16 7 C-0.405179081222837 7, -0.8165137431218985 6.964012880168563, -1.2155372436685121 6.893654271085456 C-1.6145607442151257 6.823295662002349, -2.0133972105577667 6.716427752933756, -2.394141003279681 6.5778483455013586 C-2.774884796001595 6.439268938068961, -3.149104622578983 6.26476736710249, -3.4999999999999982 6.062177826491071 C-3.8508953774210135 5.859588285879653, -4.189128084166966 5.6227551949470636, -4.499513267805773 5.362311101832848 C-4.809898451444581 5.101867008718632, -5.101867008718628 4.809898451444586, -5.3623111018328435 4.499513267805779 C-5.622755194947059 4.189128084166971, -5.859588285879649 3.8508953774210206, -6.062177826491068 3.5000000000000053 C-6.264767367102486 3.14910462257899, -6.439268938068958 2.774884796001602, -6.577848345501356 2.394141003279688 C-6.716427752933754 2.0133972105577738, -6.823295662002347 1.614560744215134, -6.893654271085454 1.215537243668521 C-6.9640128801685615 0.816513743121908, -6.999999999999999 0.4051790812228472, -7 1.0183126166254463e-14 C-7.000000000000001 -0.40517908122282686, -6.964012880168565 -0.8165137431218878, -6.893654271085459 -1.215537243668501 C-6.823295662002352 -1.6145607442151142, -6.716427752933759 -2.0133972105577542, -6.577848345501363 -2.394141003279669 C-6.439268938068967 -2.7748847960015834, -6.264767367102496 -3.149104622578972, -6.062177826491078 -3.4999999999999876 C-5.859588285879661 -3.8508953774210033, -5.6227551949470715 -4.1891280841669545, -5.362311101832856 -4.499513267805763 C-5.10186700871864 -4.809898451444571, -4.809898451444594 -5.10186700871862, -4.499513267805787 -5.362311101832836 C-4.189128084166979 -5.622755194947053, -3.850895377421028 -5.859588285879643, -3.5000000000000133 -6.062177826491062 C-3.1491046225789985 -6.264767367102482, -2.774884796001611 -6.439268938068954, -2.3941410032796973 -6.577848345501353 C-2.0133972105577835 -6.716427752933752, -1.6145607442151435 -6.823295662002345, -1.2155372436685306 -6.893654271085453 C-0.8165137431219176 -6.9640128801685615, -0.40517908122285695 -6.999999999999999, -1.9937625952807352e-14 -7 C0.4051790812228171 -7.000000000000001, 0.8165137431218781 -6.964012880168565, 1.2155372436684913 -6.89365427108546 C1.6145607442151044 -6.823295662002354, 2.013397210557745 -6.716427752933763, 2.3941410032796595 -6.5778483455013665 C2.774884796001574 -6.43926893806897, 3.149104622578963 -6.2647673671025, 3.499999999999979 -6.062177826491083 C3.8508953774209953 -5.859588285879665, 4.189128084166947 -5.622755194947077, 4.499513267805756 -5.362311101832862 C4.809898451444564 -5.1018670087186475, 5.101867008718613 -4.809898451444602, 5.362311101832829 -4.499513267805796 C5.622755194947046 -4.189128084166989, 5.859588285879637 -3.8508953774210393, 6.062177826491056 -3.500000000000025 C6.2647673671024755 -3.1491046225790105, 6.439268938068949 -2.774884796001623, 6.577848345501348 -2.3941410032797092 C6.716427752933747 -2.0133972105577955, 6.823295662002342 -1.6145607442151562, 6.893654271085451 -1.2155372436685434 C6.96401288016856 -0.8165137431219307, 6.982275711847575 -0.2025895406114567, 7 -3.2800750208310675e-14 C7.017724288152425 0.2025895406113911, 7.017724288152424 -0.2025895406114242, 7 0" stroke="none" stroke-width="0" fill="#eee" style=""/><path d="M7 0 C7 0.40517908122283747, 6.964012880168563 0.816513743121899, 6.893654271085456 1.2155372436685123 C6.823295662002349 1.6145607442151257, 6.716427752933756 2.013397210557766, 6.5778483455013586 2.394141003279681 C6.439268938068961 2.7748847960015954, 6.26476736710249 3.149104622578984, 6.062177826491071 3.4999999999999996 C5.859588285879653 3.8508953774210153, 5.622755194947063 4.189128084166967, 5.362311101832846 4.499513267805774 C5.10186700871863 4.809898451444582, 4.809898451444583 5.10186700871863, 4.499513267805775 5.362311101832846 C4.189128084166968 5.622755194947063, 3.8508953774210166 5.859588285879652, 3.500000000000001 6.06217782649107 C3.149104622578985 6.264767367102489, 2.7748847960015963 6.439268938068961, 2.3941410032796817 6.5778483455013586 C2.013397210557767 6.716427752933756, 1.6145607442151264 6.823295662002349, 1.2155372436685128 6.893654271085456 C0.8165137431218992 6.964012880168563, 0.4051790812228379 7, 4.286263797015736e-16 7 C-0.405179081222837 7, -0.8165137431218985 6.964012880168563, -1.2155372436685121 6.893654271085456 C-1.6145607442151257 6.823295662002349, -2.0133972105577667 6.716427752933756, -2.394141003279681 6.5778483455013586 C-2.774884796001595 6.439268938068961, -3.149104622578983 6.26476736710249, -3.4999999999999982 6.062177826491071 C-3.8508953774210135 5.859588285879653, -4.189128084166966 5.6227551949470636, -4.499513267805773 5.362311101832848 C-4.809898451444581 5.101867008718632, -5.101867008718628 4.809898451444586, -5.3623111018328435 4.499513267805779 C-5.622755194947059 4.189128084166971, -5.859588285879649 3.8508953774210206, -6.062177826491068 3.5000000000000053 C-6.264767367102486 3.14910462257899, -6.439268938068958 2.774884796001602, -6.577848345501356 2.394141003279688 C-6.716427752933754 2.0133972105577738, -6.823295662002347 1.614560744215134, -6.893654271085454 1.215537243668521 C-6.9640128801685615 0.816513743121908, -6.999999999999999 0.4051790812228472, -7 1.0183126166254463e-14 C-7.000000000000001 -0.40517908122282686, -6.964012880168565 -0.8165137431218878, -6.893654271085459 -1.215537243668501 C-6.823295662002352 -1.6145607442151142, -6.716427752933759 -2.0133972105577542, -6.577848345501363 -2.394141003279669 C-6.439268938068967 -2.7748847960015834, -6.264767367102496 -3.149104622578972, -6.062177826491078 -3.4999999999999876 C-5.859588285879661 -3.8508953774210033, -5.6227551949470715 -4.1891280841669545, -5.362311101832856 -4.499513267805763 C-5.10186700871864 -4.809898451444571, -4.809898451444594 -5.10186700871862, -4.499513267805787 -5.362311101832836 C-4.189128084166979 -5.622755194947053, -3.850895377421028 -5.859588285879643, -3.5000000000000133 -6.062177826491062 C-3.1491046225789985 -6.264767367102482, -2.774884796001611 -6.439268938068954, -2.3941410032796973 -6.577848345501353 C-2.0133972105577835 -6.716427752933752, -1.6145607442151435 -6.823295662002345, -1.2155372436685306 -6.893654271085453 C-0.8165137431219176 -6.9640128801685615, -0.40517908122285695 -6.999999999999999, -1.9937625952807352e-14 -7 C0.4051790812228171 -7.000000000000001, 0.8165137431218781 -6.964012880168565, 1.2155372436684913 -6.89365427108546 C1.6145607442151044 -6.823295662002354, 2.013397210557745 -6.716427752933763, 2.3941410032796595 -6.5778483455013665 C2.774884796001574 -6.43926893806897, 3.149104622578963 -6.2647673671025, 3.499999999999979 -6.062177826491083 C3.8508953774209953 -5.859588285879665, 4.189128084166947 -5.622755194947077, 4.499513267805756 -5.362311101832862 C4.809898451444564 -5.1018670087186475, 5.101867008718613 -4.809898451444602, 5.362311101832829 -4.499513267805796 C5.622755194947046 -4.189128084166989, 5.859588285879637 -3.8508953774210393, 6.062177826491056 -3.500000000000025 C6.2647673671024755 -3.1491046225790105, 6.439268938068949 -2.774884796001623, 6.577848345501348 -2.3941410032797092 C6.716427752933747 -2.0133972105577955, 6.823295662002342 -1.6145607442151562, 6.893654271085451 -1.2155372436685434 C6.96401288016856 -0.8165137431219307, 6.982275711847575 -0.2025895406114567, 7 -3.2800750208310675e-14 C7.017724288152425 0.2025895406113911, 7.017724288152424 -0.2025895406114242, 7 0" stroke="#666" stroke-width="2" fill="none" stroke-dasharray="0 0" style=""/><g><path d="M2.5 0 C2.5 0.14470681472244193, 2.487147457203058 0.29161205111496386, 2.46201938253052 0.4341204441673258 C2.436891307857982 0.5766288372196877, 2.3987241974763416 0.7190704323420595, 2.3492315519647713 0.8550503583141718 C2.299738906453201 0.991030284286284, 2.2374169168223177 1.124680222349637, 2.165063509461097 1.2499999999999998 C2.092710102099876 1.3753197776503625, 2.0081268553382365 1.496117172916774, 1.915111107797445 1.6069690242163481 C1.8220953602566536 1.7178208755159223, 1.7178208755159226 1.8220953602566536, 1.6069690242163484 1.915111107797445 C1.4961171729167742 2.0081268553382365, 1.375319777650363 2.0927101020998755, 1.2500000000000002 2.1650635094610964 C1.1246802223496375 2.2374169168223172, 0.9910302842862845 2.2997389064532, 0.8550503583141721 2.349231551964771 C0.7190704323420597 2.3987241974763416, 0.576628837219688 2.436891307857982, 0.43412044416732604 2.46201938253052 C0.291612051114964 2.487147457203058, 0.14470681472244212 2.5, 1.5308084989341916e-16 2.5 C-0.1447068147224418 2.5, -0.2916120511149638 2.487147457203058, -0.43412044416732576 2.46201938253052 C-0.5766288372196877 2.436891307857982, -0.7190704323420595 2.3987241974763416, -0.8550503583141718 2.3492315519647713 C-0.991030284286284 2.299738906453201, -1.124680222349637 2.2374169168223177, -1.2499999999999996 2.165063509461097 C-1.375319777650362 2.092710102099876, -1.4961171729167733 2.008126855338237, -1.6069690242163475 1.9151111077974459 C-1.7178208755159217 1.8220953602566548, -1.822095360256653 1.7178208755159234, -1.9151111077974443 1.6069690242163495 C-2.0081268553382357 1.4961171729167755, -2.0927101020998746 1.3753197776503645, -2.1650635094610955 1.250000000000002 C-2.2374169168223164 1.1246802223496395, -2.2997389064531992 0.9910302842862865, -2.34923155196477 0.8550503583141743 C-2.3987241974763407 0.7190704323420621, -2.436891307857981 0.5766288372196907, -2.4620193825305194 0.434120444167329 C-2.487147457203058 0.29161205111496724, -2.5 0.14470681472244545, -2.5 3.636830773662308e-15 C-2.5 -0.14470681472243818, -2.4871474572030587 -0.2916120511149599, -2.4620193825305208 -0.4341204441673218 C-2.436891307857983 -0.5766288372196837, -2.398724197476343 -0.7190704323420553, -2.3492315519647726 -0.8550503583141675 C-2.2997389064532023 -0.9910302842862798, -2.23741691682232 -1.1246802223496328, -2.165063509461099 -1.2499999999999956 C-2.092710102099878 -1.3753197776503583, -2.00812685533824 -1.4961171729167695, -1.9151111077974488 -1.606969024216344 C-1.8220953602566576 -1.7178208755159183, -1.7178208755159263 -1.82209536025665, -1.6069690242163523 -1.9151111077974416 C-1.4961171729167784 -2.0081268553382334, -1.3753197776503672 -2.0927101020998724, -1.2500000000000047 -2.1650635094610937 C-1.1246802223496422 -2.237416916822315, -0.9910302842862897 -2.299738906453198, -0.8550503583141776 -2.3492315519647686 C-0.7190704323420656 -2.3987241974763394, -0.5766288372196942 -2.4368913078579806, -0.43412044416733236 -2.462019382530519 C-0.29161205111497057 -2.4871474572030574, -0.1447068147224489 -2.4999999999999996, -7.120580697431198e-15 -2.5 C0.14470681472243463 -2.5000000000000004, 0.29161205111495647 -2.487147457203059, 0.4341204441673183 -2.4620193825305217 C0.5766288372196802 -2.436891307857984, 0.7190704323420518 -2.3987241974763442, 0.8550503583141642 -2.349231551964774 C0.9910302842862766 -2.2997389064532037, 1.1246802223496295 -2.2374169168223212, 1.2499999999999925 -2.165063509461101 C1.3753197776503554 -2.0927101020998804, 1.4961171729167668 -2.008126855338242, 1.6069690242163412 -1.915111107797451 C1.7178208755159157 -1.82209536025666, 1.8220953602566472 -1.7178208755159294, 1.915111107797439 -1.6069690242163557 C2.0081268553382308 -1.496117172916782, 2.09271010209987 -1.3753197776503712, 2.1650635094610915 -1.2500000000000089 C2.237416916822313 -1.1246802223496466, 2.299738906453196 -0.9910302842862939, 2.3492315519647673 -0.855050358314182 C2.3987241974763385 -0.71907043234207, 2.4368913078579792 -0.5766288372196986, 2.462019382530518 -0.4341204441673369 C2.487147457203057 -0.29161205111497523, 2.4936698970884197 -0.07235340736123454, 2.5 -1.1714553645825241e-14 C2.5063301029115803 0.07235340736121111, 2.50633010291158 -0.07235340736122292, 2.5 0" stroke="none" stroke-width="0" fill="#000" style=""/><path d="M2.5 0 C2.5 0.14470681472244193, 2.487147457203058 0.29161205111496386, 2.46201938253052 0.4341204441673258 C2.436891307857982 0.5766288372196877, 2.3987241974763416 0.7190704323420595, 2.3492315519647713 0.8550503583141718 C2.299738906453201 0.991030284286284, 2.2374169168223177 1.124680222349637, 2.165063509461097 1.2499999999999998 C2.092710102099876 1.3753197776503625, 2.0081268553382365 1.496117172916774, 1.915111107797445 1.6069690242163481 C1.8220953602566536 1.7178208755159223, 1.7178208755159226 1.8220953602566536, 1.6069690242163484 1.915111107797445 C1.4961171729167742 2.0081268553382365, 1.375319777650363 2.0927101020998755, 1.2500000000000002 2.1650635094610964 C1.1246802223496375 2.2374169168223172, 0.9910302842862845 2.2997389064532, 0.8550503583141721 2.349231551964771 C0.7190704323420597 2.3987241974763416, 0.576628837219688 2.436891307857982, 0.43412044416732604 2.46201938253052 C0.291612051114964 2.487147457203058, 0.14470681472244212 2.5, 1.5308084989341916e-16 2.5 C-0.1447068147224418 2.5, -0.2916120511149638 2.487147457203058, -0.43412044416732576 2.46201938253052 C-0.5766288372196877 2.436891307857982, -0.7190704323420595 2.3987241974763416, -0.8550503583141718 2.3492315519647713 C-0.991030284286284 2.299738906453201, -1.124680222349637 2.2374169168223177, -1.2499999999999996 2.165063509461097 C-1.375319777650362 2.092710102099876, -1.4961171729167733 2.008126855338237, -1.6069690242163475 1.9151111077974459 C-1.7178208755159217 1.8220953602566548, -1.822095360256653 1.7178208755159234, -1.9151111077974443 1.6069690242163495 C-2.0081268553382357 1.4961171729167755, -2.0927101020998746 1.3753197776503645, -2.1650635094610955 1.250000000000002 C-2.2374169168223164 1.1246802223496395, -2.2997389064531992 0.9910302842862865, -2.34923155196477 0.8550503583141743 C-2.3987241974763407 0.7190704323420621, -2.436891307857981 0.5766288372196907, -2.4620193825305194 0.434120444167329 C-2.487147457203058 0.29161205111496724, -2.5 0.14470681472244545, -2.5 3.636830773662308e-15 C-2.5 -0.14470681472243818, -2.4871474572030587 -0.2916120511149599, -2.4620193825305208 -0.4341204441673218 C-2.436891307857983 -0.5766288372196837, -2.398724197476343 -0.7190704323420553, -2.3492315519647726 -0.8550503583141675 C-2.2997389064532023 -0.9910302842862798, -2.23741691682232 -1.1246802223496328, -2.165063509461099 -1.2499999999999956 C-2.092710102099878 -1.3753197776503583, -2.00812685533824 -1.4961171729167695, -1.9151111077974488 -1.606969024216344 C-1.8220953602566576 -1.7178208755159183, -1.7178208755159263 -1.82209536025665, -1.6069690242163523 -1.9151111077974416 C-1.4961171729167784 -2.0081268553382334, -1.3753197776503672 -2.0927101020998724, -1.2500000000000047 -2.1650635094610937 C-1.1246802223496422 -2.237416916822315, -0.9910302842862897 -2.299738906453198, -0.8550503583141776 -2.3492315519647686 C-0.7190704323420656 -2.3987241974763394, -0.5766288372196942 -2.4368913078579806, -0.43412044416733236 -2.462019382530519 C-0.29161205111497057 -2.4871474572030574, -0.1447068147224489 -2.4999999999999996, -7.120580697431198e-15 -2.5 C0.14470681472243463 -2.5000000000000004, 0.29161205111495647 -2.487147457203059, 0.4341204441673183 -2.4620193825305217 C0.5766288372196802 -2.436891307857984, 0.7190704323420518 -2.3987241974763442, 0.8550503583141642 -2.349231551964774 C0.9910302842862766 -2.2997389064532037, 1.1246802223496295 -2.2374169168223212, 1.2499999999999925 -2.165063509461101 C1.3753197776503554 -2.0927101020998804, 1.4961171729167668 -2.008126855338242, 1.6069690242163412 -1.915111107797451 C1.7178208755159157 -1.82209536025666, 1.8220953602566472 -1.7178208755159294, 1.915111107797439 -1.6069690242163557 C2.0081268553382308 -1.496117172916782, 2.09271010209987 -1.3753197776503712, 2.1650635094610915 -1.2500000000000089 C2.237416916822313 -1.1246802223496466, 2.299738906453196 -0.9910302842862939, 2.3492315519647673 -0.855050358314182 C2.3987241974763385 -0.71907043234207, 2.4368913078579792 -0.5766288372196986, 2.462019382530518 -0.4341204441673369 C2.487147457203057 -0.29161205111497523, 2.4936698970884197 -0.07235340736123454, 2.5 -1.1714553645825241e-14 C2.5063301029115803 0.07235340736121111, 2.50633010291158 -0.07235340736122292, 2.5 0" stroke="#000" stroke-width="2" fill="none" stroke-dasharray="0 0" style=""/></g></g></g><g class="node statediagram-note" id="my-svg-state-Closing----note-10" data-look="classic" transform="translate(1375.96875, 212)"><g class="basic label-container outer-path"><path d="M-115 -78 L115 -78 L115 78 L-115 78" stroke="none" stroke-width="0" fill="#666" style=""/><path d="M-115 -78 C-34.626789801120836 -78, 45.74642039775833 -78, 115 -78 M-115 -78 C-23.022488547037455 -78, 68.95502290592509 -78, 115 -78 M115 -78 C115 -35.57012554684955, 115 6.859748906300894, 115 78 M115 -78 C115 -46.369636221346276, 115 -14.739272442692553, 115 78 M115 78 C60.179852872639735 78, 5.35970574527947 78, -115 78 M115 78 C42.24430833539252 78, -30.511383329214965 78, -115 78 M-115 78 C-115 19.983976711676597, -115 -38.032046576646806, -115 -78 M-115 78 C-115 29.136465772335335, -115 -19.72706845532933, -115 -78" stroke="#999" stroke-width="1.3" fill="none" stroke-dasharray="0 0" style=""/></g><g class="label noteLabel" style="" transform="translate(-100, -63)"><rect/><foreignObject width="200" height="126"><div xmlns="http://www.w3.org/1999/xhtml" style="display: table; white-space: break-spaces; line-height: 1.5; max-width: 200px; text-align: center; width: 200px;"><span class="nodeLabel markdown-node-label"><p>重入自锁防护：若当前即 handler<br />消费者 fiber，只发起拆卸、跳过<br />对 closed_ 的自等待（避自锁），<br />节点由 finalizer 收敛</p></span></div></foreignObject></g></g><g class="node statediagram-note" id="my-svg-state-Running----note-11" data-look="classic" transform="translate(845.96875, 100)"><g class="basic label-container outer-path"><path d="M-115 -57 L115 -57 L115 57 L-115 57" stroke="none" stroke-width="0" fill="#666" style=""/><path d="M-115 -57 C-42.50913069679822 -57, 29.981738606403553 -57, 115 -57 M-115 -57 C-48.672400243061006 -57, 17.65519951387799 -57, 115 -57 M115 -57 C115 -23.05347570730629, 115 10.893048585387419, 115 57 M115 -57 C115 -31.61129695933172, 115 -6.222593918663442, 115 57 M115 57 C29.13568350468583 57, -56.72863299062834 57, -115 57 M115 57 C45.061218283374245 57, -24.87756343325151 57, -115 57 M-115 57 C-115 24.28732548715611, -115 -8.42534902568778, -115 -57 M-115 57 C-115 21.8395709809448, -115 -13.320858038110401, -115 -57" stroke="#999" stroke-width="1.3" fill="none" stroke-dasharray="0 0" style=""/></g><g class="label noteLabel" style="" transform="translate(-100, -42)"><rect/><foreignObject width="200" height="84"><div xmlns="http://www.w3.org/1999/xhtml" style="display: table; white-space: break-spaces; line-height: 1.5; max-width: 200px; text-align: center; width: 200px;"><span class="nodeLabel markdown-node-label"><p>Request/Send 仅在 Running 放行；<br />Created/Closing/Closed 一律 kClosed</p></span></div></foreignObject></g></g><g class="label edgeLabel" id="Created---Created---1" transform="translate(421.890625, 230.97499999962747)"><rect width="0.1" height="0.1"/><g class="label" style="" transform="translate(0, 0)"><rect/><foreignObject width="0" height="0"><div xmlns="http://www.w3.org/1999/xhtml" style="display: table-cell; white-space: nowrap; line-height: 1.5; max-width: 10px; text-align: center;"><span class="nodeLabel"></span></div></foreignObject></g></g><g class="label edgeLabel" id="Created---Created---2" transform="translate(845.96875, 255.02500000037253)"><rect width="0.1" height="0.1"/><g class="label" style="" transform="translate(0, 0)"><rect/><foreignObject width="0" height="0"><div xmlns="http://www.w3.org/1999/xhtml" style="display: table-cell; white-space: nowrap; line-height: 1.5; max-width: 10px; text-align: center;"><span class="nodeLabel"></span></div></foreignObject></g></g><g class="label edgeLabel" id="Running---Running---1" transform="translate(845.96875, 354.22499999962747)"><rect width="0.1" height="0.1"/><g class="label" style="" transform="translate(0, 0)"><rect/><foreignObject width="0" height="0"><div xmlns="http://www.w3.org/1999/xhtml" style="display: table-cell; white-space: nowrap; line-height: 1.5; max-width: 10px; text-align: center;"><span class="nodeLabel"></span></div></foreignObject></g></g><g class="label edgeLabel" id="Running---Running---2" transform="translate(1375.96875, 370.05000000074506)"><rect width="0.1" height="0.1"/><g class="label" style="" transform="translate(0, 0)"><rect/><foreignObject width="0" height="0"><div xmlns="http://www.w3.org/1999/xhtml" style="display: table-cell; white-space: nowrap; line-height: 1.5; max-width: 10px; text-align: center;"><span class="nodeLabel"></span></div></foreignObject></g></g><g class="label edgeLabel" id="Closing---Closing---1" transform="translate(1375.96875, 441.0750000011176)"><rect width="0.1" height="0.1"/><g class="label" style="" transform="translate(0, 0)"><rect/><foreignObject width="0" height="0"><div xmlns="http://www.w3.org/1999/xhtml" style="display: table-cell; white-space: nowrap; line-height: 1.5; max-width: 10px; text-align: center;"><span class="nodeLabel"></span></div></foreignObject></g></g><g class="label edgeLabel" id="Closing---Closing---2" transform="translate(1732.4441466331482, 459.87500000186265)"><rect width="0.1" height="0.1"/><g class="label" style="" transform="translate(0, 0)"><rect/><foreignObject width="0" height="0"><div xmlns="http://www.w3.org/1999/xhtml" style="display: table-cell; white-space: nowrap; line-height: 1.5; max-width: 10px; text-align: center;"><span class="nodeLabel"></span></div></foreignObject></g></g><g class="label edgeLabel" id="Closed---Closed---1" transform="translate(1732.4441466331482, 533.8750000018626)"><rect width="0.1" height="0.1"/><g class="label" style="" transform="translate(0, 0)"><rect/><foreignObject width="0" height="0"><div xmlns="http://www.w3.org/1999/xhtml" style="display: table-cell; white-space: nowrap; line-height: 1.5; max-width: 10px; text-align: center;"><span class="nodeLabel"></span></div></foreignObject></g></g><g class="label edgeLabel" id="Closed---Closed---2" transform="translate(1941.1882932670414, 551.4000000022352)"><rect width="0.1" height="0.1"/><g class="label" style="" transform="translate(0, 0)"><rect/><foreignObject width="0" height="0"><div xmlns="http://www.w3.org/1999/xhtml" style="display: table-cell; white-space: nowrap; line-height: 1.5; max-width: 10px; text-align: center;"><span class="nodeLabel"></span></div></foreignObject></g></g></g></g></g><defs><filter id="my-svg-drop-shadow" height="130%" width="130%"><feDropShadow dx="4" dy="4" stdDeviation="0" flood-opacity="0.06" flood-color="#000000"/></filter></defs><defs><filter id="my-svg-drop-shadow-small" height="150%" width="150%"><feDropShadow dx="2" dy="2" stdDeviation="0" flood-opacity="0.06" flood-color="#000000"/></filter></defs><linearGradient id="my-svg-gradient" gradientUnits="objectBoundingBox" x1="0%" y1="0%" x2="100%" y2="0%"><stop offset="0%" stop-color="hsl(0, 0%, 83.3333333333%)" stop-opacity="1"/><stop offset="100%" stop-color="hsl(0, 0%, 88.9215686275%)" stop-opacity="1"/></linearGradient></svg>